<svg width="27" height="27" viewBox="0 0 27 27" fill="none" xmlns="http://www.w3.org/2000/svg">
<g clip-path="url(#clip0_10_638)">
<path d="M2.16873 17.6282L14.5473 18.1225L10.3928 8.36338L2.16873 17.6282Z" fill="#90919C"/>
<path d="M14.8028 14.2096L20.8643 11.6293C21.3956 11.4031 22.0063 11.6491 22.2325 12.1804L22.5048 12.8202L23.6542 12.3309L23.3819 11.6911C22.888 10.5308 21.5353 9.98593 20.375 10.4798L14.3135 13.0602L14.8028 14.2096Z" fill="#90919C"/>
<path d="M13.1069 8.45046L12.4671 8.7228L12.9564 9.87221L13.5962 9.59987C14.7564 9.10595 15.3013 7.75324 14.8074 6.59299L14.5351 5.95322L13.3825 6.45025L13.6549 7.09002C13.8764 7.61051 13.6273 8.22889 13.1069 8.45046Z" fill="#90919C"/>
<path d="M16.9608 14.495L15.2367 15.2289L15.726 16.3783L17.4501 15.6444C17.9815 15.4182 18.5921 15.6642 18.8183 16.1955L19.5615 17.9413L20.7109 17.452L19.9677 15.7062C19.4661 14.5428 18.1211 14.0011 16.9608 14.495Z" fill="#90919C"/>
<path d="M17.2831 9.23439L13.3903 10.8915L13.8796 12.041L17.7724 10.3838C18.9327 9.88989 19.4776 8.53718 18.9837 7.37693L18.2497 5.65281L17.1003 6.14211L17.8342 7.86623C18.0527 8.39444 17.8036 9.01282 17.2831 9.23439Z" fill="#90919C"/>
</g>
<defs>
<clipPath id="clip0_10_638">
<rect width="20" height="20" fill="white" transform="translate(7.47296) rotate(21.9408)"/>
</clipPath>
</defs>
</svg>
