<svg width="21" height="21" viewBox="0 0 21 21" fill="none" xmlns="http://www.w3.org/2000/svg">
<g clip-path="url(#clip0_12_18)">
<path d="M19.1302 9.50354L17.0701 7.63713L17.0028 4.85873L14.2423 4.56153L12.5563 2.34191L10.1503 3.72495L7.4906 2.93274L6.35981 5.47334L3.74092 6.39042L4.31569 9.11719L2.74129 11.4151L4.80139 13.2815L4.86959 16.0673L7.6301 16.3645L9.31523 18.5767L11.7203 17.1862L14.38 17.9784L15.5108 15.4378L18.1288 14.5133L17.5549 11.794L19.1302 9.50354ZM9.923 14.1414L6.76115 11.6333L7.73508 10.4022L9.66581 11.9364L13.5137 7.05522L14.7449 8.02915L9.923 14.1414Z" fill="#39B44A"/>
</g>
<defs>
<clipPath id="clip0_12_18">
<rect width="18" height="18" fill="white" transform="translate(0.953674 2.56256) rotate(-6.65262)"/>
</clipPath>
</defs>
</svg>
