<svg width="1658" height="244" viewBox="0 0 1658 244" fill="none" xmlns="http://www.w3.org/2000/svg">
<path d="M66.88 240V221.44C78.4 221.44 89.1733 219.093 99.2 214.4C109.227 209.493 118.08 202.773 125.76 194.24C133.44 185.493 139.413 175.467 143.68 164.16C147.947 152.853 150.08 140.8 150.08 128C150.08 115.2 147.947 103.147 143.68 91.84C139.413 80.5333 133.44 70.6133 125.76 62.08C118.08 53.3333 109.227 46.6133 99.2 41.92C89.1733 37.0133 78.4 34.56 66.88 34.56V16C87.1467 16 105.067 20.8 120.64 30.4C136.213 39.7867 148.373 52.9067 157.12 69.76C166.08 86.6133 170.56 106.027 170.56 128C170.56 149.76 166.08 169.067 157.12 185.92C148.373 202.773 136.213 216 120.64 225.6C105.067 235.2 87.1467 240 66.88 240ZM20.48 240V221.44H66.88V240H20.48ZM4.76837e-07 240V16H20.48V240H4.76837e-07ZM20.48 34.56V16H66.88V34.56H20.48ZM218.438 152.32C218.438 135.04 221.638 121.067 228.038 110.4C234.651 99.7333 243.078 91.9467 253.318 87.04C263.771 81.92 274.758 79.36 286.278 79.36V96.96C276.891 96.96 267.824 98.6667 259.078 102.08C250.544 105.28 243.504 110.827 237.958 118.72C232.411 126.4 229.638 136.96 229.638 150.4L218.438 152.32ZM210.438 240V80H229.638V240H210.438ZM382.683 243.84C367.323 243.84 353.669 240.32 341.723 233.28C329.989 226.027 320.709 216.107 313.883 203.52C307.269 190.933 303.963 176.427 303.963 160C303.963 143.573 307.269 129.067 313.883 116.48C320.496 103.893 329.563 94.08 341.083 87.04C352.816 79.7867 366.149 76.16 381.083 76.16C396.229 76.16 409.029 79.8933 419.483 87.36C430.149 94.6133 438.256 104.747 443.803 117.76C449.349 130.56 452.123 145.387 452.123 162.24H432.923C432.923 148.8 431.003 136.96 427.163 126.72C423.323 116.48 417.563 108.48 409.883 102.72C402.203 96.7467 392.603 93.76 381.083 93.76C369.776 93.76 359.749 96.64 351.003 102.4C342.256 107.947 335.429 115.733 330.523 125.76C325.616 135.573 323.163 146.987 323.163 160C323.163 173.013 325.723 184.533 330.843 194.56C335.963 204.373 343.003 212.16 351.963 217.92C360.923 223.467 371.163 226.24 382.683 226.24C395.056 226.24 405.509 223.253 414.043 217.28C422.789 211.093 429.616 203.2 434.523 193.6L450.523 203.52C446.469 211.413 441.136 218.453 434.523 224.64C428.123 230.613 420.549 235.307 411.803 238.72C403.056 242.133 393.349 243.84 382.683 243.84ZM317.083 162.24V144.64H438.363V162.24H317.083ZM586.833 240L585.233 216V154.24C585.233 140.587 583.633 129.387 580.433 120.64C577.446 111.68 572.646 104.96 566.033 100.48C559.633 96 551.206 93.76 540.753 93.76C530.513 93.76 521.659 95.7867 514.193 99.84C506.939 103.893 501.073 109.973 496.593 118.08L479.313 110.4C484.006 102.72 489.339 96.32 495.313 91.2C501.499 86.08 508.326 82.3467 515.793 80C523.473 77.44 531.793 76.16 540.753 76.16C555.046 76.16 566.886 79.04 576.273 84.8C585.659 90.56 592.699 99.2 597.393 110.72C602.086 122.24 604.433 136.747 604.433 154.24V240H586.833ZM537.553 243.84C518.779 243.84 504.059 239.573 493.393 231.04C482.939 222.293 477.713 210.24 477.713 194.88C477.713 179.093 482.939 166.827 493.393 158.08C504.059 149.333 518.779 144.96 537.553 144.96H585.553V162.56H540.113C524.753 162.56 513.659 165.44 506.833 171.2C500.219 176.747 496.913 184.64 496.913 194.88C496.913 204.693 500.326 212.373 507.153 217.92C514.193 223.467 523.899 226.24 536.273 226.24C546.513 226.24 555.259 224 562.513 219.52C569.979 214.827 575.633 208.427 579.473 200.32C583.313 192 585.233 182.4 585.233 171.52H602.513C602.513 193.28 596.753 210.773 585.233 224C573.926 237.227 558.033 243.84 537.553 243.84ZM647.625 240V80H665.545L666.825 109.44V240H647.625ZM762.505 240V158.08L781.705 148.48V240H762.505ZM877.385 240V158.08L896.585 148.48V240H877.385ZM762.505 158.08C762.505 140.373 760.372 126.933 756.105 117.76C752.052 108.587 746.398 102.4 739.145 99.2C732.105 95.7867 724.105 94.08 715.145 94.08C699.998 94.08 688.158 99.7333 679.625 111.04C671.092 122.133 666.825 137.707 666.825 157.76H654.985C654.985 140.693 657.332 126.08 662.025 113.92C666.932 101.76 674.078 92.48 683.465 86.08C693.065 79.4667 704.692 76.16 718.345 76.16C737.545 76.16 752.905 82.1333 764.425 94.08C776.158 106.027 781.918 124.16 781.705 148.48L762.505 158.08ZM877.385 158.08C877.385 140.373 875.252 126.933 870.985 117.76C866.932 108.587 861.278 102.4 854.025 99.2C846.985 95.7867 838.985 94.08 830.025 94.08C814.878 94.08 803.038 99.7333 794.505 111.04C785.972 122.133 781.705 137.707 781.705 157.76H769.865C769.865 140.693 772.212 126.08 776.905 113.92C781.812 101.76 788.958 92.48 798.345 86.08C807.945 79.4667 819.572 76.16 833.225 76.16C852.425 76.16 867.785 82.1333 879.305 94.08C891.038 106.027 896.798 124.16 896.585 148.48L877.385 158.08ZM1115.81 240L1175.65 16H1236.13L1171.81 240H1115.81ZM982.373 240L918.053 16H978.533L1038.37 240H982.373ZM991.013 240L1047.65 16H1100.13L1043.81 240H991.013ZM1110.37 240L1054.05 16H1106.53L1166.37 240H1110.37ZM1255.91 240V80H1313.51V240H1255.91ZM1284.71 64.64C1276.18 64.64 1268.71 61.44 1262.31 55.04C1255.91 48.64 1252.71 41.1733 1252.71 32.64C1252.71 23.8933 1255.91 16.4267 1262.31 10.24C1268.71 3.83999 1276.18 0.639992 1284.71 0.639992C1293.46 0.639992 1300.93 3.83999 1307.11 10.24C1313.51 16.4267 1316.71 23.8933 1316.71 32.64C1316.71 41.1733 1313.51 48.64 1307.11 55.04C1300.93 61.44 1293.46 64.64 1284.71 64.64ZM1372.09 235.52L1337.53 200L1440.25 83.2L1473.21 120L1372.09 235.52ZM1337.53 240V200L1370.49 193.92H1473.21V240H1337.53ZM1337.53 126.4V80H1473.21V120L1438.65 126.4H1337.53ZM1574.92 243.84C1557.64 243.84 1542.28 240.32 1528.84 233.28C1515.4 226.24 1504.84 216.427 1497.16 203.84C1489.7 191.253 1485.96 176.64 1485.96 160C1485.96 143.36 1489.7 128.747 1497.16 116.16C1504.63 103.573 1514.98 93.76 1528.2 86.72C1541.43 79.68 1556.68 76.16 1573.96 76.16C1590.39 76.16 1604.79 79.7867 1617.16 87.04C1629.75 94.08 1639.56 104.853 1646.6 119.36C1653.86 133.867 1657.48 152.213 1657.48 174.4H1600.84C1600.84 163.093 1600.1 153.067 1598.6 144.32C1597.32 135.573 1594.55 128.747 1590.28 123.84C1586.23 118.72 1580.04 116.16 1571.72 116.16C1565.11 116.16 1559.78 118.08 1555.72 121.92C1551.67 125.547 1548.79 130.88 1547.08 137.92C1545.38 144.747 1544.52 153.067 1544.52 162.88C1544.52 172.267 1545.8 179.733 1548.36 185.28C1551.14 190.613 1554.66 194.453 1558.92 196.8C1563.4 198.933 1568.2 200 1573.32 200C1580.36 200 1586.44 198.4 1591.56 195.2C1596.9 191.787 1600.2 187.627 1601.48 182.72L1652.04 198.4C1648.2 209.493 1642.02 218.453 1633.48 225.28C1625.16 231.893 1615.78 236.693 1605.32 239.68C1595.08 242.453 1584.95 243.84 1574.92 243.84ZM1522.44 174.4L1522.76 139.2H1630.92V174.4H1522.44Z" fill="url(#paint0_linear_12_29)"/>
<defs>
<linearGradient id="paint0_linear_12_29" x1="893" y1="-176" x2="901" y2="280" gradientUnits="userSpaceOnUse">
<stop offset="0.57" stop-color="white"/>
<stop offset="0.915" stop-color="#D7FF7B"/>
</linearGradient>
</defs>
</svg>
