<svg width="702" height="386" viewBox="0 0 702 386" fill="none" xmlns="http://www.w3.org/2000/svg">
<g opacity="0.25">
<path d="M668.503 335.638L668.071 334.784L671.801 332.914L672.224 333.777L668.503 335.638Z" fill="#4D61F4" fill-opacity="0.4"/>
<path d="M664.35 343.646L663.497 343.223L666.705 336.797L667.568 337.219L664.35 343.646Z" fill="#4D61F4" fill-opacity="0.4"/>
<path d="M664.899 332.285L664.467 331.431L674.228 326.551L674.65 327.405L664.899 332.285Z" fill="#4D61F4" fill-opacity="0.4"/>
<path d="M654.563 352.912L653.709 352.49L661.429 337.04L662.292 337.471L654.563 352.912Z" fill="#4D61F4" fill-opacity="0.4"/>
<path d="M667.748 325.706L667.316 324.843L670.417 323.297L670.849 324.151L667.748 325.706Z" fill="#4D61F4" fill-opacity="0.4"/>
<path d="M650.95 349.838L650.087 349.416L653.17 343.25L654.023 343.682L650.95 349.838Z" fill="#4D61F4" fill-opacity="0.4"/>
<path d="M617.56 344.437L616.697 344.014L618.243 340.931L619.097 341.363L617.56 344.437Z" fill="#4D61F4" fill-opacity="0.4"/>
<path d="M616.832 335.575L615.978 335.143L626.754 313.599L627.608 314.031L616.832 335.575Z" fill="#4D61F4" fill-opacity="0.4"/>
<path d="M612.221 344.814L611.358 344.383L614.441 338.226L615.295 338.648L612.221 344.814Z" fill="#4D61F4" fill-opacity="0.4"/>
<path d="M611.493 335.943L610.63 335.521L626.035 304.711L626.898 305.142L611.493 335.943Z" fill="#4D61F4" fill-opacity="0.4"/>
<path d="M606.307 336.006L605.453 335.575L622.395 301.691L623.249 302.122L606.307 336.006Z" fill="#4D61F4" fill-opacity="0.4"/>
<path d="M602.694 332.932L601.831 332.501L620.328 295.507L621.191 295.938L602.694 332.932Z" fill="#4D61F4" fill-opacity="0.4"/>
<path d="M599.072 329.858L598.209 329.436L615.151 295.552L616.005 295.983L599.072 329.858Z" fill="#4D61F4" fill-opacity="0.4"/>
<path d="M595.45 326.785L594.596 326.353L613.084 289.377L613.947 289.809L595.45 326.785Z" fill="#4D61F4" fill-opacity="0.4"/>
<path d="M619.169 277.819L618.737 276.956L621.847 275.401L622.269 276.264L619.169 277.819Z" fill="#4D61F4" fill-opacity="0.4"/>
<path d="M590.291 326.794L589.428 326.371L611.044 283.14L611.907 283.562L590.291 326.794Z" fill="#4D61F4" fill-opacity="0.4"/>
<path d="M627.725 268.382L627.294 267.528L630.377 265.991L630.799 266.845L627.725 268.382Z" fill="#4D61F4" fill-opacity="0.4"/>
<path d="M615.358 274.565L614.927 273.712L618.036 272.148L618.468 273.011L615.358 274.565Z" fill="#4D61F4" fill-opacity="0.4"/>
<path d="M586.669 323.729L585.815 323.297L607.422 280.084L608.276 280.515L586.669 323.729Z" fill="#4D61F4" fill-opacity="0.4"/>
<path d="M617.758 268.211L617.326 267.357L626.575 262.729L626.997 263.591L617.758 268.211Z" fill="#4D61F4" fill-opacity="0.4"/>
<path d="M606.298 273.936L606.191 273.721L605.597 273.424L605.732 273.154L614.235 268.903L614.666 269.757L606.298 273.936Z" fill="#4D61F4" fill-opacity="0.4"/>
<path d="M603.081 280.605L602.218 280.174L603.791 277.028L604.653 277.46L603.081 280.605Z" fill="#4D61F4" fill-opacity="0.4"/>
<path d="M581.501 323.747L580.647 323.315L597.589 289.44L598.443 289.872L581.501 323.747Z" fill="#4D61F4" fill-opacity="0.4"/>
<path d="M601.023 274.404L600.16 273.972L602.29 269.721L610.433 265.65L610.855 266.503L603.009 270.431L601.023 274.404Z" fill="#4D61F4" fill-opacity="0.4"/>
<path d="M576.324 323.801L575.461 323.369L593.967 286.366L594.821 286.798L576.324 323.801Z" fill="#4D61F4" fill-opacity="0.4"/>
<path d="M599.279 267.582L598.416 267.151L598.856 266.279L606.631 262.396L607.053 263.25L599.575 266.998L599.279 267.582Z" fill="#4D61F4" fill-opacity="0.4"/>
<path d="M595.836 274.467L594.974 274.035L596.537 270.907L597.4 271.339L595.836 274.467Z" fill="#4D61F4" fill-opacity="0.4"/>
<path d="M559.481 330.766L559.058 329.903L569.7 324.583L591.891 280.219L592.745 280.641L570.419 325.302L559.481 330.766Z" fill="#4D61F4" fill-opacity="0.4"/>
<path d="M593.769 268.274L592.915 267.852L595.414 262.845L599.692 260.706L600.115 261.569L596.133 263.555L593.769 268.274Z" fill="#4D61F4" fill-opacity="0.4"/>
<path d="M552.596 329.049L552.174 328.196L566.267 321.149L588.269 277.145L589.123 277.576L566.986 321.859L552.596 329.049Z" fill="#4D61F4" fill-opacity="0.4"/>
<path d="M590.147 265.209L589.293 264.787L590.92 261.533L591.774 261.956L590.147 265.209Z" fill="#4D61F4" fill-opacity="0.4"/>
<path d="M551.877 324.259L551.455 323.396L562.833 317.707L581.564 280.228L582.427 280.659L563.543 318.426L551.877 324.259Z" fill="#4D61F4" fill-opacity="0.4"/>
<path d="M586.525 262.144L585.671 261.722L588.547 255.961L588.691 255.898L588.934 256.347L589.329 256.536L586.525 262.144Z" fill="#4D61F4" fill-opacity="0.4"/>
<path d="M551.167 319.459L550.736 318.597L559.391 314.274L574.877 283.311L575.731 283.742L560.11 314.984L551.167 319.459Z" fill="#4D61F4" fill-opacity="0.4"/>
<path d="M578.265 268.355L577.411 267.924L580.494 261.758L581.357 262.18L578.265 268.355Z" fill="#4D61F4" fill-opacity="0.4"/>
<path d="M575.192 274.512L574.329 274.089L575.866 271.006L576.728 271.438L575.192 274.512Z" fill="#4D61F4" fill-opacity="0.4"/>
<path d="M550.466 314.651L550.044 313.788L555.958 310.84L568.172 286.393L569.035 286.825L556.668 311.55L550.466 314.651Z" fill="#4D61F4" fill-opacity="0.4"/>
<path d="M577.735 259.115L576.872 258.684L578.427 255.583L579.281 256.015L577.735 259.115Z" fill="#4D61F4" fill-opacity="0.4"/>
<path d="M573.106 268.364L572.252 267.933L575.326 261.776L576.189 262.198L573.106 268.364Z" fill="#4D61F4" fill-opacity="0.4"/>
<path d="M568.487 277.594L567.633 277.172L570.707 271.015L571.569 271.447L568.487 277.594Z" fill="#4D61F4" fill-opacity="0.4"/>
<path d="M549.819 309.816L549.388 308.962L552.515 307.398L558.393 295.642L559.256 296.073L553.234 308.117L549.819 309.816Z" fill="#4D61F4" fill-opacity="0.4"/>
<path d="M571.03 262.216L570.167 261.785L574.805 252.518L575.659 252.941L571.03 262.216Z" fill="#4D61F4" fill-opacity="0.4"/>
<path d="M566.41 271.447L565.557 271.015L568.63 264.868L569.493 265.29L566.41 271.447Z" fill="#4D61F4" fill-opacity="0.4"/>
<path d="M561.791 280.677L560.937 280.246L562.474 277.172L563.337 277.603L561.791 280.677Z" fill="#4D61F4" fill-opacity="0.4"/>
<path d="M549.648 304.746L549.343 304.27L549.01 304.108L550.053 302.014L550.916 302.446L549.792 304.675L549.648 304.746Z" fill="#4D61F4" fill-opacity="0.4"/>
<path d="M558.178 277.603L557.315 277.181L568.091 255.628L568.945 256.06L558.178 277.603Z" fill="#4D61F4" fill-opacity="0.4"/>
<path d="M568.379 246.883L567.525 246.452L571.012 239.468L571.875 239.9L568.379 246.883Z" fill="#4D61F4" fill-opacity="0.4"/>
<path d="M560.676 262.297L559.813 261.866L562.896 255.718L563.75 256.141L560.676 262.297Z" fill="#4D61F4" fill-opacity="0.4"/>
<path d="M566.132 241.068L565.278 240.637L567.92 235.343L571.902 233.357L572.333 234.21L568.639 236.062L566.132 241.068Z" fill="#4D61F4" fill-opacity="0.4"/>
<path d="M552.255 268.822L551.401 268.391L559.094 253.004L559.948 253.435L552.255 268.822Z" fill="#4D61F4" fill-opacity="0.4"/>
<path d="M549.181 274.979L548.318 274.548L549.855 271.474L550.718 271.905L549.181 274.979Z" fill="#4D61F4" fill-opacity="0.4"/>
<path d="M563.921 235.181L563.058 234.759L564.487 231.909L570.868 228.719L571.3 229.573L565.197 232.629L563.921 235.181Z" fill="#4D61F4" fill-opacity="0.4"/>
<path d="M548.453 266.117L547.599 265.686L558.366 244.142L559.229 244.564L548.453 266.117Z" fill="#4D61F4" fill-opacity="0.4"/>
<path d="M543.833 275.347L542.979 274.925L544.516 271.842L545.379 272.274L543.833 275.347Z" fill="#4D61F4" fill-opacity="0.4"/>
<path d="M561.62 229.258L561.431 228.872L560.946 228.674L561.045 228.476L566.689 225.654L567.12 226.508L561.62 229.258Z" fill="#4D61F4" fill-opacity="0.4"/>
<path d="M553.881 244.942L553.028 244.51L556.11 238.345L556.973 238.776L553.881 244.942Z" fill="#4D61F4" fill-opacity="0.4"/>
<path d="M543.114 266.485L542.251 266.054L551.491 247.593L552.345 248.025L543.114 266.485Z" fill="#4D61F4" fill-opacity="0.4"/>
<path d="M538.494 275.725L537.632 275.302L540.714 269.137L541.577 269.559L538.494 275.725Z" fill="#4D61F4" fill-opacity="0.4"/>
<path d="M701.041 109.63L699.931 110.183L700.359 111.044L701.47 110.491L701.041 109.63Z" fill="#4D61F4" fill-opacity="0.4"/>
<path d="M562.941 223.443L562.51 222.589L565.629 221.025L566.06 221.888L562.941 223.443Z" fill="#4D61F4" fill-opacity="0.4"/>
<path d="M540.849 260.697L539.995 260.275L543.069 254.118L543.932 254.55L540.849 260.697Z" fill="#4D61F4" fill-opacity="0.4"/>
<path d="M534.693 273.02L533.83 272.597L535.376 269.505L536.229 269.937L534.693 273.02Z" fill="#4D61F4" fill-opacity="0.4"/>
<path d="M695.772 108.148L695.34 107.285L698.72 105.595L699.151 106.458L695.772 108.148Z" fill="#4D61F4" fill-opacity="0.4"/>
<path d="M641.683 136.181L640.82 135.758L641.629 134.14L642.106 133.907L642.528 134.76L642.339 134.859L641.683 136.181Z" fill="#4D61F4" fill-opacity="0.4"/>
<path d="M530.891 270.314L530.028 269.892L533.111 263.717L533.973 264.149L530.891 270.314Z" fill="#4D61F4" fill-opacity="0.4"/>
<path d="M697.461 101.766L696.599 101.344L698.225 98.0903L699.088 98.5217L697.461 101.766Z" fill="#4D61F4" fill-opacity="0.4"/>
<path d="M691.583 105.083L691.161 104.22L694.388 102.611L694.81 103.465L691.583 105.083Z" fill="#4D61F4" fill-opacity="0.4"/>
<path d="M634.646 139.946L633.783 139.524L638.196 130.707L644.901 127.346L645.332 128.208L638.906 131.417L634.646 139.946Z" fill="#4D61F4" fill-opacity="0.4"/>
<path d="M560.811 214.195L560.389 213.341L566.554 210.249L566.986 211.112L560.811 214.195Z" fill="#4D61F4" fill-opacity="0.4"/>
<path d="M527.089 267.609L526.226 267.187L530.846 257.938L531.709 258.361L527.089 267.609Z" fill="#4D61F4" fill-opacity="0.4"/>
<path d="M687.413 102.009L686.982 101.155L693.201 98.0453L693.39 98.4138L693.884 98.6116L693.812 98.7554L693.633 98.9082L687.413 102.009Z" fill="#4D61F4" fill-opacity="0.4"/>
<path d="M659.668 115.886L659.245 115.023L677.706 105.793L678.138 106.656L659.668 115.886Z" fill="#4D61F4" fill-opacity="0.4"/>
<path d="M630.844 137.241L629.981 136.819L634.753 127.265L646.923 121.189L647.354 122.043L635.472 127.984L630.844 137.241Z" fill="#4D61F4" fill-opacity="0.4"/>
<path d="M547.869 215.516L547.671 215.102L547.213 214.905L547.294 214.725L547.446 214.653L565.467 205.638L565.898 206.501L547.869 215.516Z" fill="#4D61F4" fill-opacity="0.4"/>
<path d="M535.6 240.268L534.737 239.837L540.903 227.523L541.757 227.955L535.6 240.268Z" fill="#4D61F4" fill-opacity="0.4"/>
<path d="M524.824 261.821L523.97 261.389L530.127 249.076L530.981 249.499L524.824 261.821Z" fill="#4D61F4" fill-opacity="0.4"/>
<path d="M631.886 124.622L631.832 124.505L631.149 124.164L631.32 123.831L689.624 94.6839L690.514 92.8953L691.377 93.3267L690.334 95.3939L632.012 124.595L631.976 124.577L631.886 124.622Z" fill="#4D61F4" fill-opacity="0.4"/>
<path d="M611.646 165.328L610.783 164.906L612.32 161.823L613.183 162.254L611.646 165.328Z" fill="#4D61F4" fill-opacity="0.4"/>
<path d="M580.198 194.197L579.766 193.334L602.164 182.135L604.6 177.273L605.453 177.704L602.883 182.854L580.198 194.197Z" fill="#4D61F4" fill-opacity="0.4"/>
<path d="M542.62 215.929L541.757 215.498L543.86 211.291L564.379 201.027L564.811 201.89L544.579 212.002L542.62 215.929Z" fill="#4D61F4" fill-opacity="0.4"/>
<path d="M539.501 222.158L538.638 221.735L540.184 218.634L541.047 219.066L539.501 222.158Z" fill="#4D61F4" fill-opacity="0.4"/>
<path d="M531.798 237.563L530.945 237.131L537.101 224.818L537.955 225.249L531.798 237.563Z" fill="#4D61F4" fill-opacity="0.4"/>
<path d="M521.022 259.115L520.159 258.684L526.325 246.362L527.179 246.793L521.022 259.115Z" fill="#4D61F4" fill-opacity="0.4"/>
<path d="M647.04 111.887L646.608 111.033L686.325 91.1697L686.514 91.5382L687.009 91.7359L686.937 91.8797L686.757 92.0325L647.04 111.887Z" fill="#4D61F4" fill-opacity="0.4"/>
<path d="M580.962 188.651L580.539 187.797L598.73 178.702L607.907 160.34L608.77 160.762L599.441 179.412L580.962 188.651Z" fill="#4D61F4" fill-opacity="0.4"/>
<path d="M527.386 236.071L526.532 235.639L540.427 207.849L565.152 195.491L565.575 196.345L541.146 208.568L527.386 236.071Z" fill="#4D61F4" fill-opacity="0.4"/>
<path d="M522.775 245.301L521.912 244.879L523.449 241.796L524.312 242.227L522.775 245.301Z" fill="#4D61F4" fill-opacity="0.4"/>
<path d="M518.155 254.541L517.292 254.118L520.375 247.953L521.229 248.384L518.155 254.541Z" fill="#4D61F4" fill-opacity="0.4"/>
<path d="M637.072 111.716L636.65 110.853L682.892 87.7363L683.099 88.1588L683.539 88.3655L683.467 88.5093L683.324 88.5902L637.072 111.716Z" fill="#4D61F4" fill-opacity="0.4"/>
<path d="M625.011 117.747L624.804 117.324L624.355 117.144L624.427 116.965L630.448 113.954L630.88 114.817L625.011 117.747Z" fill="#4D61F4" fill-opacity="0.4"/>
<path d="M609.768 148.458L608.905 148.026L610.451 144.953L611.305 145.384L609.768 148.458Z" fill="#4D61F4" fill-opacity="0.4"/>
<path d="M606.685 154.614L605.831 154.183L607.368 151.109L608.231 151.532L606.685 154.614Z" fill="#4D61F4" fill-opacity="0.4"/>
<path d="M603.611 160.771L602.748 160.34L604.294 157.266L605.148 157.688L603.611 160.771Z" fill="#4D61F4" fill-opacity="0.4"/>
<path d="M600.519 166.946L599.665 166.514L601.211 163.432L602.074 163.854L600.519 166.946Z" fill="#4D61F4" fill-opacity="0.4"/>
<path d="M574.086 186.935L573.655 186.081L579.811 182.998L580.243 183.861L574.086 186.935Z" fill="#4D61F4" fill-opacity="0.4"/>
<path d="M519.153 242.227L518.29 241.805L536.993 204.416L564.424 190.691L564.856 191.554L537.703 205.126L519.153 242.227Z" fill="#4D61F4" fill-opacity="0.4"/>
<path d="M514.533 251.476L513.67 251.044L516.753 244.879L517.616 245.31L514.533 251.476Z" fill="#4D61F4" fill-opacity="0.4"/>
<path d="M681.284 82.5683L680.421 82.1459L682.03 78.9283L682.892 79.3597L681.284 82.5683Z" fill="#4D61F4" fill-opacity="0.4"/>
<path d="M620.05 117.576L619.196 117.153L621.011 113.522L676.052 85.9927L676.484 86.8555L621.721 114.232L620.05 117.576Z" fill="#4D61F4" fill-opacity="0.4"/>
<path d="M603.072 151.541L602.209 151.109L608.365 138.805L609.228 139.227L603.072 151.541Z" fill="#4D61F4" fill-opacity="0.4"/>
<path d="M573.358 182.144L572.936 181.281L579.092 178.207L579.524 179.061L573.358 182.144Z" fill="#4D61F4" fill-opacity="0.4"/>
<path d="M518.613 233.006L517.751 232.575L533.551 200.973L563.705 185.901L564.128 186.764L534.27 201.693L518.613 233.006Z" fill="#4D61F4" fill-opacity="0.4"/>
<path d="M676.331 81.7775L676.034 81.1933L675.801 81.0764L676.78 79.1261L677.634 79.5575L676.592 81.6427L676.331 81.7775Z" fill="#4D61F4" fill-opacity="0.4"/>
<path d="M614.855 117.657L613.992 117.234L617.569 110.08L672.233 82.7481L672.664 83.6109L618.288 110.799L614.855 117.657Z" fill="#4D61F4" fill-opacity="0.4"/>
<path d="M591.729 163.917L590.866 163.494L607.826 129.574L608.68 130.006L591.729 163.917Z" fill="#4D61F4" fill-opacity="0.4"/>
<path d="M572.639 177.354L572.208 176.491L578.382 173.408L578.805 174.271L572.639 177.354Z" fill="#4D61F4" fill-opacity="0.4"/>
<path d="M516.528 226.858L515.674 226.427L530.118 197.54L566.051 179.574L566.482 180.427L530.828 198.259L516.528 226.858Z" fill="#4D61F4" fill-opacity="0.4"/>
<path d="M609.687 117.684L608.824 117.261L614.136 106.647L665.294 81.0674L665.717 81.9302L614.846 107.366L609.687 117.684Z" fill="#4D61F4" fill-opacity="0.4"/>
<path d="M586.39 164.276L585.536 163.845L602.667 129.583L603.521 130.015L586.39 164.276Z" fill="#4D61F4" fill-opacity="0.4"/>
<path d="M571.92 172.554L571.489 171.7L580.8 167.045L581.222 167.898L571.92 172.554Z" fill="#4D61F4" fill-opacity="0.4"/>
<path d="M511.369 226.858L510.515 226.436L526.675 194.107L559.175 177.848L559.607 178.711L527.394 194.817L511.369 226.858Z" fill="#4D61F4" fill-opacity="0.4"/>
<path d="M602.982 120.784L602.119 120.353L610.693 103.213L652.226 82.4426L652.648 83.3054L611.412 103.923L602.982 120.784Z" fill="#4D61F4" fill-opacity="0.4"/>
<path d="M509.293 220.711L508.43 220.279L523.242 190.664L581.546 161.517L595.971 132.666L596.825 133.098L582.256 162.227L523.961 191.384L509.293 220.711Z" fill="#4D61F4" fill-opacity="0.4"/>
<path d="M418.678 314.48L417.815 314.049L422.435 304.818L423.289 305.25L418.678 314.48Z" fill="#4D61F4" fill-opacity="0.4"/>
<path d="M507.208 214.563L506.354 214.132L519.8 187.231L578.104 158.075L607.26 99.771L642.267 82.2718L642.699 83.1256L607.979 100.49L578.823 158.794L520.519 187.941L507.208 214.563Z" fill="#4D61F4" fill-opacity="0.4"/>
<path d="M485.988 248.941L485.556 248.078L488.81 246.452L489.241 247.315L485.988 248.941Z" fill="#4D61F4" fill-opacity="0.4"/>
<path d="M413.519 314.489L412.656 314.058L424.97 289.44L425.832 289.863L413.519 314.489Z" fill="#4D61F4" fill-opacity="0.4"/>
<path d="M502.058 214.563L501.195 214.141L516.366 183.789L574.67 154.641L603.818 96.3377L641.539 77.4723L641.971 78.3351L604.537 97.0567L575.389 155.351L517.085 184.508L502.058 214.563Z" fill="#4D61F4" fill-opacity="0.4"/>
<path d="M482.177 245.688L481.745 244.834L487.354 242.021L487.561 242.425L488.019 242.632L487.947 242.776L487.785 242.884L482.177 245.688Z" fill="#4D61F4" fill-opacity="0.4"/>
<path d="M411.443 308.333L410.58 307.91L422.893 283.284L423.756 283.706L411.443 308.333Z" fill="#4D61F4" fill-opacity="0.4"/>
<path d="M492.279 223.803L491.416 223.38L512.933 180.356L571.237 151.199L600.384 92.8954L634.664 75.7556L635.095 76.6185L601.103 93.6144L571.947 151.918L513.643 181.075L492.279 223.803Z" fill="#4D61F4" fill-opacity="0.4"/>
<path d="M475.265 243.989L474.834 243.126L483.921 238.587L484.352 239.441L475.265 243.989Z" fill="#4D61F4" fill-opacity="0.4"/>
<path d="M412.432 296.028L411.578 295.606L413.115 292.532L413.978 292.955L412.432 296.028Z" fill="#4D61F4" fill-opacity="0.4"/>
<path d="M474.564 239.181L474.133 238.327L480.343 235.226L509.491 176.913L567.795 147.766L596.951 89.462L627.788 74.0389L628.21 74.9018L597.661 90.181L568.514 148.476L510.21 177.632L481.053 235.936L474.564 239.181Z" fill="#4D61F4" fill-opacity="0.4"/>
<path d="M371.51 334.433L371.088 333.579L389.666 324.286L390.097 325.149L371.51 334.433Z" fill="#4D61F4" fill-opacity="0.4"/>
<path d="M473.899 234.354L473.477 233.5L476.901 231.784L506.057 173.48L564.361 144.332L593.509 86.0287L620.903 72.3223L621.335 73.1851L594.228 86.7387L565.071 145.043L506.767 174.199L477.62 232.503L473.899 234.354Z" fill="#4D61F4" fill-opacity="0.4"/>
<path d="M402.123 296.046L401.26 295.615L407.417 283.311L408.27 283.733L402.123 296.046Z" fill="#4D61F4" fill-opacity="0.4"/>
<path d="M392.856 314.57L392.002 314.139L396.64 304.854L397.503 305.277L392.856 314.57Z" fill="#4D61F4" fill-opacity="0.4"/>
<path d="M364.635 332.716L364.203 331.863L389.45 319.244L390.376 317.392L391.229 317.824L390.16 319.954L364.635 332.716Z" fill="#4D61F4" fill-opacity="0.4"/>
<path d="M470.088 231.11L469.657 230.247L473.468 228.35L502.615 170.047L560.919 140.89L590.075 82.5864L617.102 69.0687L617.533 69.9316L590.785 83.3054L561.638 141.609L503.334 170.757L474.178 229.06L470.088 231.11Z" fill="#4D61F4" fill-opacity="0.4"/>
<path d="M360.833 329.463L360.41 328.6L386.008 315.801L405.331 277.154L406.194 277.585L386.727 316.52L360.833 329.463Z" fill="#4D61F4" fill-opacity="0.4"/>
<path d="M470.142 225.924L469.711 225.07L470.025 224.908L499.182 166.604L557.486 137.457L586.633 79.153L610.226 67.361L610.648 68.2149L587.352 79.863L558.205 138.167L499.901 167.323L470.744 225.627L470.142 225.924Z" fill="#4D61F4" fill-opacity="0.4"/>
<path d="M360.114 324.672L359.682 323.81L382.574 312.368L411.731 254.064L422.669 248.591L423.1 249.454L412.441 254.774L383.293 313.078L360.114 324.672Z" fill="#4D61F4" fill-opacity="0.4"/>
<path d="M616.086 60.3416L615.655 59.4877L624.885 54.868L625.316 55.7308L616.086 60.3416Z" fill="#4D61F4" fill-opacity="0.4"/>
<path d="M600.699 68.0351L600.267 67.1812L609.498 62.5615L609.929 63.4244L600.699 68.0351Z" fill="#4D61F4" fill-opacity="0.4"/>
<path d="M469.522 217.754L468.668 217.331L495.748 163.171L554.052 134.014L583.2 75.7107L594.102 70.2641L594.533 71.1179L583.919 76.4297L554.762 134.733L496.458 163.881L469.522 217.754Z" fill="#4D61F4" fill-opacity="0.4"/>
<path d="M356.312 321.419L355.88 320.556L379.132 308.926L408.288 250.622L425.033 242.254L425.464 243.108L409.007 251.341L379.851 309.645L356.312 321.419Z" fill="#4D61F4" fill-opacity="0.4"/>
<path d="M612.284 57.088L611.853 56.2341L618.009 53.1513L618.432 54.0142L612.284 57.088Z" fill="#4D61F4" fill-opacity="0.4"/>
<path d="M599.971 63.2446L599.549 62.3907L605.696 59.3079L606.128 60.1707L599.971 63.2446Z" fill="#4D61F4" fill-opacity="0.4"/>
<path d="M584.503 70.9831L584.071 70.1203L587.199 68.5564L587.631 69.4192L584.503 70.9831Z" fill="#4D61F4" fill-opacity="0.4"/>
<path d="M464.04 218.419L463.177 217.987L492.306 159.729L550.61 130.581L579.766 72.2774L580.234 72.0437L580.665 72.8975L580.476 72.9964L551.329 131.3L493.025 160.448L464.04 218.419Z" fill="#4D61F4" fill-opacity="0.4"/>
<path d="M355.584 316.628L355.152 315.766L375.699 305.492L404.855 247.189L427.387 235.918L427.819 236.781L405.565 247.899L376.418 306.211L355.584 316.628Z" fill="#4D61F4" fill-opacity="0.4"/>
<path d="M599.252 58.4542L598.82 57.5913L611.125 51.4347L611.556 52.2975L599.252 58.4542Z" fill="#4D61F4" fill-opacity="0.4"/>
<path d="M462.269 211.642L461.415 211.211L488.873 156.295L547.177 127.148L576.324 68.844L580.252 66.8757L580.683 67.7295L577.043 69.5541L547.887 127.858L489.583 157.005L462.269 211.642Z" fill="#4D61F4" fill-opacity="0.4"/>
<path d="M354.856 311.829L354.433 310.966L372.265 302.059L401.413 243.755L417.429 235.747L417.86 236.601L402.132 244.465L372.975 302.769L354.856 311.829Z" fill="#4D61F4" fill-opacity="0.4"/>
<path d="M595.45 55.2005L595.019 54.3377L607.332 48.1811L607.754 49.0439L595.45 55.2005Z" fill="#4D61F4" fill-opacity="0.4"/>
<path d="M457.074 211.723L456.22 211.291L485.43 152.862L543.734 123.705L572.891 65.4017L579.587 62.0493L580.018 62.9121L573.601 66.1207L544.453 124.425L486.15 153.572L457.074 211.723Z" fill="#4D61F4" fill-opacity="0.4"/>
<path d="M354.137 307.038L353.705 306.176L368.823 298.617L397.979 240.313L444.41 217.098L444.842 217.96L398.698 241.032L369.542 299.336L354.137 307.038Z" fill="#4D61F4" fill-opacity="0.4"/>
<path d="M451.618 209.413L451.196 208.55L452.841 207.723L481.997 149.419L540.301 120.272L569.448 61.9683L576.89 58.2474L577.322 59.1102L570.167 62.6784L541.02 120.982L482.716 150.139L453.56 208.442L451.618 209.413Z" fill="#4D61F4" fill-opacity="0.4"/>
<path d="M411.344 229.546L410.922 228.692L444.797 211.75L445.228 212.613L411.344 229.546Z" fill="#4D61F4" fill-opacity="0.4"/>
<path d="M351.432 303.237L351 302.374L365.39 295.184L394.546 236.88L407.839 230.229L408.261 231.092L395.256 237.59L366.1 295.894L351.432 303.237Z" fill="#4D61F4" fill-opacity="0.4"/>
<path d="M444.159 207.984L443.736 207.121L449.407 204.29L478.564 145.986L536.868 116.83L564.766 61.0336L565.62 61.4561L537.578 117.549L479.274 146.696L450.117 205L444.159 207.984Z" fill="#4D61F4" fill-opacity="0.4"/>
<path d="M410.257 224.935L409.834 224.081L440.626 208.676L441.058 209.539L410.257 224.935Z" fill="#4D61F4" fill-opacity="0.4"/>
<path d="M350.344 298.617L349.913 297.763L361.947 291.741L391.104 233.437L403.669 227.155L404.1 228.018L391.823 234.156L362.666 292.46L350.344 298.617Z" fill="#4D61F4" fill-opacity="0.4"/>
<path d="M433.796 208.011L433.364 207.157L445.974 200.848L475.122 142.544L533.425 113.397L559.355 61.546L560.209 61.9774L534.144 114.107L475.841 143.263L446.684 201.567L433.796 208.011Z" fill="#4D61F4" fill-opacity="0.4"/>
<path d="M406.095 221.861L405.664 221.007L430.281 208.694L430.713 209.557L406.095 221.861Z" fill="#4D61F4" fill-opacity="0.4"/>
<path d="M349.265 294.006L348.834 293.143L358.514 288.308L387.67 230.004L402.581 222.544L403.012 223.407L388.38 230.714L359.233 289.027L349.265 294.006Z" fill="#4D61F4" fill-opacity="0.4"/>
<path d="M432.717 203.4L432.286 202.537L442.532 197.414L471.688 139.111L529.992 109.963L555.544 58.8496L556.407 59.272L530.702 110.673L472.398 139.821L443.251 198.133L432.717 203.4Z" fill="#4D61F4" fill-opacity="0.4"/>
<path d="M405.008 217.25L404.576 216.397L426.12 205.62L426.542 206.483L405.008 217.25Z" fill="#4D61F4" fill-opacity="0.4"/>
<path d="M351.324 287.823L350.892 286.969L355.081 284.875L384.228 226.571L401.494 217.933L401.925 218.787L384.947 227.281L355.791 285.585L351.324 287.823Z" fill="#4D61F4" fill-opacity="0.4"/>
<path d="M352.528 281.81L351.665 281.387L380.795 223.128L439.098 193.981L468.246 135.668L526.55 106.521L551.742 56.1443L552.596 56.5757L527.269 107.24L468.965 136.387L439.808 194.691L381.505 223.847L352.528 281.81Z" fill="#4D61F4" fill-opacity="0.4"/>
<path d="M399.75 209.566L399.318 208.712L435.656 190.539L464.812 132.235L523.116 103.087L546.386 56.5397L547.248 56.9622L523.826 103.798L465.532 132.954L436.375 191.258L399.75 209.566Z" fill="#4D61F4" fill-opacity="0.4"/>
<path d="M350.569 275.419L349.706 274.997L377.361 219.695L396.245 210.249L396.676 211.103L378.071 220.405L350.569 275.419Z" fill="#4D61F4" fill-opacity="0.4"/>
<path d="M543.447 54.2568L542.584 53.8254L548.758 41.4852L549.612 41.9166L543.447 54.2568Z" fill="#4D61F4" fill-opacity="0.4"/>
<path d="M348.34 269.559L347.477 269.137L373.919 216.253L432.223 187.105L461.379 128.802L519.683 99.6452L541.047 56.9172L541.901 57.3396L520.393 100.364L462.089 129.512L432.933 187.815L374.638 216.972L348.34 269.559Z" fill="#4D61F4" fill-opacity="0.4"/>
<path d="M346.093 263.753L345.23 263.322L370.486 212.819L428.789 183.663L457.937 125.359L516.241 96.2119L545.253 38.1777L546.116 38.6091L516.96 96.9219L458.656 126.078L429.5 184.382L371.196 213.529L346.093 263.753Z" fill="#4D61F4" fill-opacity="0.4"/>
<path d="M202.726 384.163L201.913 384.568L202.342 385.429L203.154 385.024L202.726 384.163Z" fill="#4D61F4" fill-opacity="0.4"/>
<path d="M431.531 170.002L430.677 169.579L454.504 121.926L512.807 92.7695L539.798 38.7798L540.66 39.2113L513.517 93.4885L455.214 122.636L431.531 170.002Z" fill="#4D61F4" fill-opacity="0.4"/>
<path d="M345.536 254.541L344.682 254.109L367.043 209.377L425.347 180.23L425.823 179.277L426.677 179.708L426.066 180.949L367.762 210.096L345.536 254.541Z" fill="#4D61F4" fill-opacity="0.4"/>
<path d="M192.752 385.187L191.898 384.756L192.132 384.288L199.565 380.576L199.996 381.43L192.851 385.007L192.752 385.187Z" fill="#4D61F4" fill-opacity="0.4"/>
<path d="M429.455 163.845L428.601 163.423L451.061 118.493L509.365 89.3362L534.612 38.8428L535.475 39.2652L510.084 90.0552L451.78 119.203L429.455 163.845Z" fill="#4D61F4" fill-opacity="0.4"/>
<path d="M393.009 192.318L392.578 191.464L421.914 176.796L422.013 176.581L422.875 177.012L422.624 177.506L393.009 192.318Z" fill="#4D61F4" fill-opacity="0.4"/>
<path d="M341.922 251.467L341.06 251.035L363.61 205.944L389.504 193.001L389.926 193.855L364.32 206.663L341.922 251.467Z" fill="#4D61F4" fill-opacity="0.4"/>
<path d="M188.168 384.055L187.306 383.632L188.699 380.855L195.763 377.323L196.194 378.177L189.409 381.565L188.168 384.055Z" fill="#4D61F4" fill-opacity="0.4"/>
<path d="M533.416 33.0816L532.553 32.6502L534.216 29.3337L535.07 29.7651L533.416 33.0816Z" fill="#4D61F4" fill-opacity="0.4"/>
<path d="M430.452 151.541L429.598 151.109L447.628 115.05L505.932 85.9029L530.999 35.769L531.852 36.2004L506.642 86.6129L448.338 115.769L430.452 151.541Z" fill="#4D61F4" fill-opacity="0.4"/>
<path d="M425.832 160.78L424.979 160.349L428.061 154.192L428.915 154.614L425.832 160.78Z" fill="#4D61F4" fill-opacity="0.4"/>
<path d="M395.355 185.991L394.932 185.128L418.472 173.354L423.433 163.432L424.296 163.863L419.191 174.073L395.355 185.991Z" fill="#4D61F4" fill-opacity="0.4"/>
<path d="M336.754 251.485L335.901 251.053L360.168 202.51L379.545 192.822L379.968 193.675L360.887 203.22L336.754 251.485Z" fill="#4D61F4" fill-opacity="0.4"/>
<path d="M184.807 380.469L183.944 380.046L185.256 377.413L191.961 374.069L192.384 374.932L185.975 378.132L184.807 380.469Z" fill="#4D61F4" fill-opacity="0.4"/>
<path d="M528.23 33.1265L527.377 32.7041L530.549 26.3407L531.412 26.7721L528.23 33.1265Z" fill="#4D61F4" fill-opacity="0.4"/>
<path d="M425.293 151.541L424.439 151.118L444.186 111.617L502.498 82.4605L525.831 35.7959L526.684 36.2183L503.208 83.1795L444.905 112.327L425.293 151.541Z" fill="#4D61F4" fill-opacity="0.4"/>
<path d="M397.71 179.654L397.287 178.792L415.038 169.921L419.811 160.367L420.673 160.789L415.748 170.631L397.71 179.654Z" fill="#4D61F4" fill-opacity="0.4"/>
<path d="M388.479 184.274L388.048 183.411L391.131 181.874L391.553 182.728L388.479 184.274Z" fill="#4D61F4" fill-opacity="0.4"/>
<path d="M333.132 248.411L332.279 247.98L356.734 199.068L375.743 189.568L376.166 190.422L357.453 199.787L333.132 248.411Z" fill="#4D61F4" fill-opacity="0.4"/>
<path d="M182.398 374.77L182.281 374.546L181.688 374.249L181.823 373.979L194.343 367.724L194.774 368.578L182.398 374.77Z" fill="#4D61F4" fill-opacity="0.4"/>
<path d="M523.071 33.1535L522.209 32.7221L526.909 23.3209L527.772 23.7433L523.071 33.1535Z" fill="#4D61F4" fill-opacity="0.4"/>
<path d="M384.677 181.012L384.246 180.158L411.605 166.478L440.752 108.175L499.056 79.0272L517.589 41.9615L518.443 42.3929L499.775 79.7372L441.471 108.894L412.315 167.197L384.677 181.012Z" fill="#4D61F4" fill-opacity="0.4"/>
<path d="M375.447 185.631L375.016 184.769L378.098 183.232L378.521 184.094L375.447 185.631Z" fill="#4D61F4" fill-opacity="0.4"/>
<path d="M326.374 251.62L325.52 251.188L353.292 195.635L359.583 192.489L360.015 193.352L354.011 196.345L326.374 251.62Z" fill="#4D61F4" fill-opacity="0.4"/>
<path d="M178.956 371.328L178.893 371.202L178.219 370.87L178.381 370.546L199.781 359.842L200.212 360.704L179.082 371.301L179.055 371.283L178.956 371.328Z" fill="#4D61F4" fill-opacity="0.4"/>
<path d="M519.449 30.0797L518.586 29.6483L523.278 20.274L524.132 20.7054L519.449 30.0797Z" fill="#4D61F4" fill-opacity="0.4"/>
<path d="M408.702 163.845L408.513 163.396L408.091 163.189L437.319 104.741L495.623 75.5848L512.43 41.9615L513.293 42.3929L496.333 76.3039L438.029 105.46L408.873 163.782L408.702 163.845Z" fill="#4D61F4" fill-opacity="0.4"/>
<path d="M380.876 177.758L380.453 176.904L402.033 166.11L402.464 166.964L380.876 177.758Z" fill="#4D61F4" fill-opacity="0.4"/>
<path d="M321.278 251.287L321.044 250.847L320.639 250.64L349.859 192.192L355.782 189.235L356.204 190.098L350.578 192.911L321.421 251.215L321.278 251.287Z" fill="#4D61F4" fill-opacity="0.4"/>
<path d="M177.743 366.789L177.311 365.926L195.979 356.588L196.41 357.451L177.743 366.789Z" fill="#4D61F4" fill-opacity="0.4"/>
<path d="M514.29 30.0886L513.427 29.6572L518.065 20.3908L518.919 20.8132L514.29 30.0886Z" fill="#4D61F4" fill-opacity="0.4"/>
<path d="M467.769 85.4265L467.338 84.5726L492.18 72.1515L507.271 41.9705L508.134 42.4019L492.899 72.8705L467.769 85.4265Z" fill="#4D61F4" fill-opacity="0.4"/>
<path d="M405.295 160.394L405.026 159.935L404.657 159.755L433.877 101.299L464.264 86.1095L464.687 86.9724L434.596 102.018L405.439 160.322L405.295 160.394Z" fill="#4D61F4" fill-opacity="0.4"/>
<path d="M377.074 174.504L376.642 173.651L395.13 164.402L395.553 165.265L377.074 174.504Z" fill="#4D61F4" fill-opacity="0.4"/>
<path d="M370.917 177.587L370.495 176.724L373.568 175.188L374 176.041L370.917 177.587Z" fill="#4D61F4" fill-opacity="0.4"/>
<path d="M311.031 251.251L310.609 250.397L317.269 247.063L346.425 188.759L348.735 187.6L349.167 188.462L347.135 189.478L317.988 247.773L311.031 251.251Z" fill="#4D61F4" fill-opacity="0.4"/>
<path d="M247.056 302.176L246.203 301.745L250.813 292.514L251.676 292.946L247.056 302.176Z" fill="#4D61F4" fill-opacity="0.4"/>
<path d="M180.277 360.363L179.846 359.5L201.407 348.715L201.839 349.578L180.277 360.363Z" fill="#4D61F4" fill-opacity="0.4"/>
<path d="M510.668 27.0148L509.805 26.5834L516.016 14.1713L516.879 14.6027L510.668 27.0148Z" fill="#4D61F4" fill-opacity="0.4"/>
<path d="M473.198 77.5621L472.776 76.6993L488.747 68.7182L500.575 45.0533L501.438 45.4847L489.457 69.4282L473.198 77.5621Z" fill="#4D61F4" fill-opacity="0.4"/>
<path d="M401.682 157.041L401.359 156.385L401.215 156.313L401.269 156.205L401.26 156.187L401.287 156.169L430.443 97.8656L469.693 78.2363L470.124 79.0991L431.153 98.5846L402.006 156.888L401.682 157.041Z" fill="#4D61F4" fill-opacity="0.4"/>
<path d="M376.355 169.714L375.923 168.851L382.08 165.777L382.502 166.631L376.355 169.714Z" fill="#4D61F4" fill-opacity="0.4"/>
<path d="M367.115 174.325L366.693 173.471L372.84 170.397L373.272 171.251L367.115 174.325Z" fill="#4D61F4" fill-opacity="0.4"/>
<path d="M354.793 180.49L354.371 179.627L357.453 178.091L357.885 178.944L354.793 180.49Z" fill="#4D61F4" fill-opacity="0.4"/>
<path d="M307.23 247.998L306.807 247.144L313.836 243.621L342.983 185.326L348.16 182.737L348.591 183.591L343.702 186.036L314.546 244.34L307.23 247.998Z" fill="#4D61F4" fill-opacity="0.4"/>
<path d="M238.824 308.333L237.961 307.91L255.532 272.777L260.538 270.269L260.969 271.132L256.242 273.496L238.824 308.333Z" fill="#4D61F4" fill-opacity="0.4"/>
<path d="M210.35 340.167L209.919 339.314L216.084 336.231L216.516 337.085L210.35 340.167Z" fill="#4D61F4" fill-opacity="0.4"/>
<path d="M179.558 355.563L179.136 354.701L206.845 340.85L207.267 341.713L179.558 355.563Z" fill="#4D61F4" fill-opacity="0.4"/>
<path d="M507.046 23.941L506.192 23.5186L510.821 14.2522L511.675 14.6746L507.046 23.941Z" fill="#4D61F4" fill-opacity="0.4"/>
<path d="M472.479 72.7627L472.057 71.9089L485.314 65.2759L490.796 54.3018L491.65 54.7332L486.024 65.9949L472.479 72.7627Z" fill="#4D61F4" fill-opacity="0.4"/>
<path d="M391.041 157.212L390.618 156.349L397.853 152.736L427.001 94.4323L468.974 73.4458L469.396 74.3086L427.72 95.1423L398.564 153.446L391.041 157.212Z" fill="#4D61F4" fill-opacity="0.4"/>
<path d="M363.313 171.071L362.891 170.217L384.435 159.441L384.866 160.304L363.313 171.071Z" fill="#4D61F4" fill-opacity="0.4"/>
<path d="M350.991 177.237L350.569 176.374L359.808 171.754L360.24 172.617L350.991 177.237Z" fill="#4D61F4" fill-opacity="0.4"/>
<path d="M303.428 244.744L302.996 243.89L310.393 240.187L339.55 181.883L347.477 177.92L347.899 178.783L340.26 182.602L311.112 240.906L303.428 244.744Z" fill="#4D61F4" fill-opacity="0.4"/>
<path d="M181.922 349.227L181.499 348.364L222.942 327.647L252.089 269.344L252.997 268.894L253.42 269.748L252.809 270.054L223.661 328.357L181.922 349.227Z" fill="#4D61F4" fill-opacity="0.4"/>
<path d="M504.97 17.7934L504.107 17.362L507.199 11.1873L508.062 11.6098L504.97 17.7934Z" fill="#4D61F4" fill-opacity="0.4"/>
<path d="M471.76 67.9632L471.338 67.1094L481.871 61.8425L485.628 54.3287L486.491 54.7512L482.59 62.5526L471.76 67.9632Z" fill="#4D61F4" fill-opacity="0.4"/>
<path d="M459.447 74.1288L459.015 73.266L468.255 68.6463L468.677 69.5091L459.447 74.1288Z" fill="#4D61F4" fill-opacity="0.4"/>
<path d="M390.358 152.394L389.935 151.532L394.411 149.294L423.567 90.9899L455.933 74.8119L456.364 75.6657L424.278 91.7089L395.13 150.013L390.358 152.394Z" fill="#4D61F4" fill-opacity="0.4"/>
<path d="M365.668 164.744L365.246 163.881L386.816 153.096L387.239 153.958L365.668 164.744Z" fill="#4D61F4" fill-opacity="0.4"/>
<path d="M356.438 169.363L356.006 168.501L362.163 165.418L362.594 166.281L356.438 169.363Z" fill="#4D61F4" fill-opacity="0.4"/>
<path d="M299.626 241.49L299.195 240.637L306.96 236.754L336.107 178.45L336.674 178.163L337.105 179.025L336.826 179.16L307.67 237.464L299.626 241.49Z" fill="#4D61F4" fill-opacity="0.4"/>
<path d="M181.203 344.428L180.771 343.574L219.5 324.205L248.656 265.901L249.097 265.686L249.528 266.539L249.375 266.62L220.219 324.924L181.203 344.428Z" fill="#4D61F4" fill-opacity="0.4"/>
<path d="M499.811 17.8024L498.948 17.371L500.494 14.2881L501.348 14.7196L499.811 17.8024Z" fill="#4D61F4" fill-opacity="0.4"/>
<path d="M458.719 69.3384L458.287 68.4755L467.536 63.8558L467.958 64.7096L458.719 69.3384Z" fill="#4D61F4" fill-opacity="0.4"/>
<path d="M361.866 161.49L361.435 160.627L390.978 145.86L420.125 87.5566L452.14 71.5493L452.562 72.4122L420.844 88.2666L391.697 146.579L361.866 161.49Z" fill="#4D61F4" fill-opacity="0.4"/>
<path d="M352.636 166.101L352.204 165.247L358.361 162.164L358.793 163.027L352.636 166.101Z" fill="#4D61F4" fill-opacity="0.4"/>
<path d="M343.387 170.73L342.965 169.867L346.048 168.321L346.479 169.184L343.387 170.73Z" fill="#4D61F4" fill-opacity="0.4"/>
<path d="M295.815 238.237L295.393 237.383L303.518 233.312L331.703 176.958L332.566 177.381L304.237 234.031L295.815 238.237Z" fill="#4D61F4" fill-opacity="0.4"/>
<path d="M183.558 338.1L183.126 337.237L216.066 320.772L244.153 264.607L245.007 265.029L216.785 321.482L183.558 338.1Z" fill="#4D61F4" fill-opacity="0.4"/>
<path d="M457.991 64.5389L457.568 63.685L469.935 57.4924L470.367 58.3553L457.991 64.5389Z" fill="#4D61F4" fill-opacity="0.4"/>
<path d="M442.604 72.2324L442.181 71.3786L445.255 69.8417L445.686 70.6955L442.604 72.2324Z" fill="#4D61F4" fill-opacity="0.4"/>
<path d="M348.834 162.847L348.403 161.993L387.544 142.427L416.692 84.1143L432.942 75.9893L433.373 76.8521L417.411 84.8333L388.255 143.137L348.834 162.847Z" fill="#4D61F4" fill-opacity="0.4"/>
<path d="M342.669 165.93L342.246 165.067L345.329 163.53L345.751 164.393L342.669 165.93Z" fill="#4D61F4" fill-opacity="0.4"/>
<path d="M329.879 172.329L329.447 171.467L336.053 168.159L336.485 169.022L329.879 172.329Z" fill="#4D61F4" fill-opacity="0.4"/>
<path d="M295.123 233.428L294.692 232.575L300.084 229.878L324.882 180.284L325.744 180.706L300.803 230.588L295.123 233.428Z" fill="#4D61F4" fill-opacity="0.4"/>
<path d="M182.83 333.31L182.407 332.447L212.633 317.329L240.504 261.578L241.367 262.01L213.343 318.048L182.83 333.31Z" fill="#4D61F4" fill-opacity="0.4"/>
<path d="M463.446 56.6565L463.015 55.8027L466.125 54.2478L466.556 55.1016L463.446 56.6565Z" fill="#4D61F4" fill-opacity="0.4"/>
<path d="M435.728 70.5158L435.297 69.6619L438.379 68.125L438.802 68.9788L435.728 70.5158Z" fill="#4D61F4" fill-opacity="0.4"/>
<path d="M354.263 154.983L353.84 154.12L384.102 138.985L413.259 80.6809L416.719 78.9553L417.141 79.8091L413.969 81.4L384.821 139.704L354.263 154.983Z" fill="#4D61F4" fill-opacity="0.4"/>
<path d="M345.032 159.594L344.601 158.74L350.757 155.657L351.189 156.52L345.032 159.594Z" fill="#4D61F4" fill-opacity="0.4"/>
<path d="M291.312 230.184L290.89 229.321L296.651 226.445L325.798 168.141L332.252 164.914L332.683 165.768L326.517 168.851L297.361 227.155L291.312 230.184Z" fill="#4D61F4" fill-opacity="0.4"/>
<path d="M185.184 326.973L184.753 326.11L209.191 313.896L236.873 258.54L237.727 258.972L209.91 314.615L185.184 326.973Z" fill="#4D61F4" fill-opacity="0.4"/>
<path d="M431.926 67.2621L431.495 66.4083L437.651 63.3255L438.083 64.1883L431.926 67.2621Z" fill="#4D61F4" fill-opacity="0.4"/>
<path d="M419.595 73.4278L419.172 72.565L422.255 71.028L422.687 71.8819L419.595 73.4278Z" fill="#4D61F4" fill-opacity="0.4"/>
<path d="M315.417 180.742L314.555 180.311L322.365 164.699L380.669 135.551L403.642 89.6148L404.495 90.0372L381.379 136.261L323.075 165.418L315.417 180.742Z" fill="#4D61F4" fill-opacity="0.4"/>
<path d="M293.82 223.767L293.559 223.362L293.137 223.146L313.018 183.393L313.881 183.825L293.937 223.704L293.82 223.767Z" fill="#4D61F4" fill-opacity="0.4"/>
<path d="M184.456 322.183L184.034 321.32L205.757 310.463L231.66 258.657L232.514 259.089L206.468 311.173L184.456 322.183Z" fill="#4D61F4" fill-opacity="0.4"/>
<path d="M428.124 64.0086L427.693 63.1547L436.923 58.535L437.355 59.3888L428.124 64.0086Z" fill="#4D61F4" fill-opacity="0.4"/>
<path d="M400.873 86.9724L400.02 86.541L404.693 77.1937L405.547 77.6161L400.873 86.9724Z" fill="#4D61F4" fill-opacity="0.4"/>
<path d="M310.258 180.742L309.396 180.32L318.932 161.265L377.226 132.109L396.937 92.6976L397.791 93.129L377.946 132.828L319.642 161.975L310.258 180.742Z" fill="#4D61F4" fill-opacity="0.4"/>
<path d="M291.69 217.88L290.836 217.448L292.445 214.221L293.307 214.653L291.69 217.88Z" fill="#4D61F4" fill-opacity="0.4"/>
<path d="M186.811 315.846L186.389 314.993L202.315 307.02L228.038 255.583L228.892 256.015L203.034 307.739L186.811 315.846Z" fill="#4D61F4" fill-opacity="0.4"/>
<path d="M427.405 59.2181L426.974 58.3553L445.435 49.1248L445.866 49.9787L427.405 59.2181Z" fill="#4D61F4" fill-opacity="0.4"/>
<path d="M397.26 83.8985L396.397 83.4671L401.062 74.1378L401.925 74.5602L397.26 83.8985Z" fill="#4D61F4" fill-opacity="0.4"/>
<path d="M324.369 154.462L323.938 153.599L373.793 128.676L394.852 86.55L395.714 86.9814L374.512 129.395L324.369 154.462Z" fill="#4D61F4" fill-opacity="0.4"/>
<path d="M309.719 171.512L308.856 171.089L315.346 158.111L316.208 158.542L309.719 171.512Z" fill="#4D61F4" fill-opacity="0.4"/>
<path d="M186.092 311.056L185.661 310.193L198.882 303.587L224.416 252.518L225.27 252.95L199.601 304.297L186.092 311.056Z" fill="#4D61F4" fill-opacity="0.4"/>
<path d="M432.834 51.3448L432.402 50.4909L457.811 37.7822L458.638 36.1284L459.501 36.5509L458.53 38.4922L432.834 51.3448Z" fill="#4D61F4" fill-opacity="0.4"/>
<path d="M320.567 151.208L320.136 150.345L370.36 125.242L395.867 74.2097L396.73 74.6411L371.07 125.952L320.567 151.208Z" fill="#4D61F4" fill-opacity="0.4"/>
<path d="M309.189 162.263L308.335 161.832L311.813 154.866L312.676 155.289L309.189 162.263Z" fill="#4D61F4" fill-opacity="0.4"/>
<path d="M188.474 304.711L188.042 303.848L195.448 300.145L220.794 249.454L221.657 249.876L196.158 300.864L188.474 304.711Z" fill="#4D61F4" fill-opacity="0.4"/>
<path d="M372.858 112.075L371.996 111.644L392.02 71.6033L392.883 72.0257L372.858 112.075Z" fill="#4D61F4" fill-opacity="0.4"/>
<path d="M365.884 123.391L365.453 122.528L366.918 121.8L370.45 114.745L371.304 115.167L367.637 122.519L365.884 123.391Z" fill="#4D61F4" fill-opacity="0.4"/>
<path d="M319.408 146.633L318.977 145.771L362.136 124.191L362.567 125.045L319.408 146.633Z" fill="#4D61F4" fill-opacity="0.4"/>
<path d="M187.323 300.127L186.901 299.264L192.006 296.711L218.502 243.719L219.356 244.151L192.725 297.43L187.323 300.127Z" fill="#4D61F4" fill-opacity="0.4"/>
<path d="M370.593 106.278L369.74 105.856L388.219 68.8979L389.072 69.3204L370.593 106.278Z" fill="#4D61F4" fill-opacity="0.4"/>
<path d="M333.717 134.32L333.285 133.457L348.681 125.764L349.104 126.626L333.717 134.32Z" fill="#4D61F4" fill-opacity="0.4"/>
<path d="M324.486 138.94L324.055 138.077L330.211 135.003L330.643 135.857L324.486 138.94Z" fill="#4D61F4" fill-opacity="0.4"/>
<path d="M186.326 295.471L185.903 294.608L188.573 293.278L213.145 244.133L213.999 244.564L189.283 293.988L186.326 295.471Z" fill="#4D61F4" fill-opacity="0.4"/>
<path d="M454.998 12.3882L453.455 15.4855L454.316 15.9143L455.859 12.817L454.998 12.3882Z" fill="#4D61F4" fill-opacity="0.4"/>
<path d="M372.948 91.2596L372.094 90.8281L385.963 63.0918L386.825 63.5143L372.948 91.2596Z" fill="#4D61F4" fill-opacity="0.4"/>
<path d="M369.874 97.4162L369.012 96.9847L370.558 93.9109L371.411 94.3333L369.874 97.4162Z" fill="#4D61F4" fill-opacity="0.4"/>
<path d="M363.691 109.774L362.837 109.343L364.392 106.242L365.246 106.665L363.691 109.774Z" fill="#4D61F4" fill-opacity="0.4"/>
<path d="M351.108 120.47L350.686 119.607L360.168 114.861L360.599 115.724L351.108 120.47Z" fill="#4D61F4" fill-opacity="0.4"/>
<path d="M344.942 123.553L344.511 122.69L347.594 121.153L348.025 122.007L344.942 123.553Z" fill="#4D61F4" fill-opacity="0.4"/>
<path d="M314.15 138.949L313.728 138.086L329.124 130.383L329.546 131.246L314.15 138.949Z" fill="#4D61F4" fill-opacity="0.4"/>
<path d="M182.12 292.415L181.688 291.561L185.139 289.836L209.335 241.427L210.197 241.859L185.85 290.555L182.12 292.415Z" fill="#4D61F4" fill-opacity="0.4"/>
<path d="M447.43 19.4382L446.576 19.0068L449.686 12.7872L450.54 13.2186L447.43 19.4382Z" fill="#4D61F4" fill-opacity="0.4"/>
<path d="M340.772 120.479L340.341 119.625L356.609 111.491L380.606 63.4873L381.469 63.9187L357.328 112.201L340.772 120.479Z" fill="#4D61F4" fill-opacity="0.4"/>
<path d="M313.072 134.329L312.64 133.475L328.036 125.782L328.459 126.635L313.072 134.329Z" fill="#4D61F4" fill-opacity="0.4"/>
<path d="M177.922 289.359L177.5 288.497L181.697 286.402L205.533 238.722L206.396 239.154L182.416 287.112L177.922 289.359Z" fill="#4D61F4" fill-opacity="0.4"/>
<path d="M441.75 20.4987L440.896 20.0673L444.338 13.1826L445.192 13.6051L441.75 20.4987Z" fill="#4D61F4" fill-opacity="0.4"/>
<path d="M342.767 114.322L342.345 113.468L353.175 108.049L375.267 63.8737L376.121 64.2962L353.885 108.768L342.767 114.322Z" fill="#4D61F4" fill-opacity="0.4"/>
<path d="M315.058 128.181L314.635 127.319L323.866 122.708L324.297 123.562L315.058 128.181Z" fill="#4D61F4" fill-opacity="0.4"/>
<path d="M302.718 134.347L302.295 133.493L311.553 128.864L311.984 129.718L302.718 134.347Z" fill="#4D61F4" fill-opacity="0.4"/>
<path d="M177.023 284.659L176.592 283.796L178.264 282.96L201.731 236.017L202.594 236.448L178.974 283.679L177.023 284.659Z" fill="#4D61F4" fill-opacity="0.4"/>
<path d="M435.665 18.9977L435.234 18.1349L437.193 17.1642L442.1 7.34058L442.954 7.77199L437.903 17.8743L435.665 18.9977Z" fill="#4D61F4" fill-opacity="0.4"/>
<path d="M335.523 112.794L335.092 111.94L349.733 104.615L368.382 67.3251L369.236 67.7475L350.452 105.334L335.523 112.794Z" fill="#4D61F4" fill-opacity="0.4"/>
<path d="M304.731 128.19L304.308 127.328L319.696 119.634L320.127 120.488L304.731 128.19Z" fill="#4D61F4" fill-opacity="0.4"/>
<path d="M172.754 281.63L172.323 280.776L174.821 279.527L196.383 236.394L197.246 236.826L175.541 280.237L172.754 281.63Z" fill="#4D61F4" fill-opacity="0.4"/>
<path d="M425.14 19.0966L424.709 18.2428L433.895 13.65L434.002 13.8747L434.605 14.1713L434.47 14.4409L425.14 19.0966Z" fill="#4D61F4" fill-opacity="0.4"/>
<path d="M337.518 106.638L337.096 105.784L346.299 101.182L361.507 70.7674L362.361 71.1988L347.01 101.892L337.518 106.638Z" fill="#4D61F4" fill-opacity="0.4"/>
<path d="M309.809 120.497L309.378 119.634L321.691 113.486L322.113 114.34L309.809 120.497Z" fill="#4D61F4" fill-opacity="0.4"/>
<path d="M171.954 276.875L171.703 276.426L171.316 276.237L194.127 230.606L194.981 231.038L172.098 276.803L171.954 276.875Z" fill="#4D61F4" fill-opacity="0.4"/>
<path d="M417.887 17.5777L417.456 16.7148L426.785 12.0502L427.217 12.913L417.887 17.5777Z" fill="#4D61F4" fill-opacity="0.4"/>
<path d="M336.449 102.018L336.017 101.164L342.857 97.7397L343.729 96.0051L344.583 96.4365L343.576 98.4588L336.449 102.018Z" fill="#4D61F4" fill-opacity="0.4"/>
<path d="M311.795 114.349L311.364 113.486L320.603 108.876L321.026 109.729L311.795 114.349Z" fill="#4D61F4" fill-opacity="0.4"/>
<path d="M168.189 273.604L167.757 272.75L167.946 272.651L187.243 234.066L188.105 234.489L168.665 273.37L168.189 273.604Z" fill="#4D61F4" fill-opacity="0.4"/>
<path d="M413.717 14.5038L413.285 13.641L416.368 12.1041L416.8 12.9579L413.717 14.5038Z" fill="#4D61F4" fill-opacity="0.4"/>
<path d="M185.84 228.701L184.978 228.278L186.524 225.196L187.377 225.627L185.84 228.701Z" fill="#4D61F4" fill-opacity="0.4"/>
<path d="M167.335 265.721L166.472 265.299L181.904 234.435L182.758 234.857L167.335 265.721Z" fill="#4D61F4" fill-opacity="0.4"/>
<path d="M180.079 229.914L179.217 229.492L182.299 223.335L183.153 223.758L180.079 229.914Z" fill="#4D61F4" fill-opacity="0.4"/>
<path d="M173.923 242.227L173.069 241.796L174.606 238.722L175.46 239.154L173.923 242.227Z" fill="#4D61F4" fill-opacity="0.4"/>
<path d="M176.457 226.849L175.603 226.418L177.14 223.344L177.994 223.767L176.457 226.849Z" fill="#4D61F4" fill-opacity="0.4"/>
<path d="M167.227 245.31L166.364 244.879L169.447 238.722L170.31 239.154L167.227 245.31Z" fill="#4D61F4" fill-opacity="0.4"/>
<path d="M172.844 223.776L171.981 223.344L175.055 217.187L175.918 217.619L172.844 223.776Z" fill="#4D61F4" fill-opacity="0.4"/>
<path d="M163.605 242.236L162.751 241.814L164.288 238.731L165.151 239.163L163.605 242.236Z" fill="#4D61F4" fill-opacity="0.4"/>
<path d="M170.157 218.832L169.294 218.401L172.377 212.244L173.231 212.676L170.157 218.832Z" fill="#4D61F4" fill-opacity="0.4"/>
<path d="M167.083 224.989L166.22 224.557L167.757 221.475L168.62 221.906L167.083 224.989Z" fill="#4D61F4" fill-opacity="0.4"/>
<path d="M160.926 237.293L160.063 236.862L164.683 227.631L165.537 228.063L160.926 237.293Z" fill="#4D61F4" fill-opacity="0.4"/>
<path d="M284.221 97.2005L283.798 96.3377L302.259 87.1072L302.691 87.9701L284.221 97.2005Z" fill="#4D61F4" fill-opacity="0.4"/>
<path d="M167.083 214.662L166.22 214.239L167.766 211.157L168.62 211.588L167.083 214.662Z" fill="#4D61F4" fill-opacity="0.4"/>
<path d="M156.316 236.206L155.453 235.783L160.073 226.544L160.926 226.975L156.316 236.206Z" fill="#4D61F4" fill-opacity="0.4"/>
<path d="M279.979 94.1626L279.547 93.3088L301.091 82.5414L301.522 83.3952L279.979 94.1626Z" fill="#4D61F4" fill-opacity="0.4"/>
<path d="M167.865 202.798L167.002 202.367L168.548 199.275L169.411 199.706L167.865 202.798Z" fill="#4D61F4" fill-opacity="0.4"/>
<path d="M161.699 215.111L160.845 214.689L162.382 211.606L163.245 212.037L161.699 215.111Z" fill="#4D61F4" fill-opacity="0.4"/>
<path d="M152.469 233.581L151.615 233.15L154.689 226.993L155.552 227.425L152.469 233.581Z" fill="#4D61F4" fill-opacity="0.4"/>
<path d="M276.905 90.5495L276.473 89.6867L282.63 86.6129L283.061 87.4757L276.905 90.5495Z" fill="#4D61F4" fill-opacity="0.4"/>
<path d="M164.611 198.996L163.749 198.565L169.609 186.854L179.612 181.847L180.034 182.71L170.319 187.564L164.611 198.996Z" fill="#4D61F4" fill-opacity="0.4"/>
<path d="M147.678 232.862L146.815 232.431L156.055 213.961L156.909 214.392L147.678 232.862Z" fill="#4D61F4" fill-opacity="0.4"/>
<path d="M276.914 85.3905L276.482 84.5277L279.556 82.9908L279.988 83.8536L276.914 85.3905Z" fill="#4D61F4" fill-opacity="0.4"/>
<path d="M159.812 198.277L158.949 197.846L166.166 183.411L179.63 176.688L180.052 177.542L166.885 184.13L159.812 198.277Z" fill="#4D61F4" fill-opacity="0.4"/>
<path d="M144.416 229.06L143.562 228.629L151.255 213.233L152.118 213.664L144.416 229.06Z" fill="#4D61F4" fill-opacity="0.4"/>
<path d="M242.553 109.936L241.7 109.505L244.782 103.339L245.636 103.771L242.553 109.936Z" fill="#4D61F4" fill-opacity="0.4"/>
<path d="M220.614 152.116L220.183 151.253L221.037 150.831L223.194 146.516L224.048 146.948L221.747 151.541L220.614 152.116Z" fill="#4D61F4" fill-opacity="0.4"/>
<path d="M155.021 197.549L154.159 197.127L162.733 179.978L182.713 169.984L183.144 170.846L163.443 180.697L155.021 197.549Z" fill="#4D61F4" fill-opacity="0.4"/>
<path d="M139.625 228.341L138.762 227.91L141.845 221.744L142.708 222.176L139.625 228.341Z" fill="#4D61F4" fill-opacity="0.4"/>
<path d="M270.766 78.1554L270.335 77.2925L282.648 71.1359L283.07 71.9987L270.766 78.1554Z" fill="#4D61F4" fill-opacity="0.4"/>
<path d="M237.763 109.208L236.9 108.786L246.751 89.0845L264.178 80.3664L264.609 81.2292L247.461 89.8036L237.763 109.208Z" fill="#4D61F4" fill-opacity="0.4"/>
<path d="M217.846 148.341L217.415 147.478L217.594 147.388L219.94 142.706L220.803 143.128L218.313 148.107L217.846 148.341Z" fill="#4D61F4" fill-opacity="0.4"/>
<path d="M198.531 157.994L198.109 157.14L210.449 150.965L210.88 151.819L198.531 157.994Z" fill="#4D61F4" fill-opacity="0.4"/>
<path d="M148.685 199.904L147.822 199.482L159.3 176.545L191.952 160.214L192.384 161.068L160.01 177.255L148.685 199.904Z" fill="#4D61F4" fill-opacity="0.4"/>
<path d="M134.817 227.631L133.963 227.2L138.592 217.942L139.455 218.374L134.817 227.631Z" fill="#4D61F4" fill-opacity="0.4"/>
<path d="M234.509 105.406L233.647 104.984L243.308 85.6512L282.648 65.9769L283.079 66.8398L244.027 86.3612L234.509 105.406Z" fill="#4D61F4" fill-opacity="0.4"/>
<path d="M210.952 146.633L210.521 145.77L214.161 143.955L218.251 135.776L219.104 136.207L214.871 144.665L210.952 146.633Z" fill="#4D61F4" fill-opacity="0.4"/>
<path d="M143.895 199.185L143.032 198.753L155.857 173.102L201.192 150.435L201.623 151.298L156.576 173.821L143.895 199.185Z" fill="#4D61F4" fill-opacity="0.4"/>
<path d="M131.572 223.829L130.709 223.398L135.338 214.141L136.201 214.572L131.572 223.829Z" fill="#4D61F4" fill-opacity="0.4"/>
<path d="M229.71 104.687L228.856 104.256L239.875 82.2089L282.657 60.8179L283.088 61.6808L240.594 82.9279L229.71 104.687Z" fill="#4D61F4" fill-opacity="0.4"/>
<path d="M212.687 138.724L211.833 138.302L216.543 128.882L217.397 129.314L212.687 138.724Z" fill="#4D61F4" fill-opacity="0.4"/>
<path d="M126.764 223.137L125.901 222.706L152.424 169.669L207.465 142.148L207.897 143.002L153.134 170.379L126.764 223.137Z" fill="#4D61F4" fill-opacity="0.4"/>
<path d="M226.456 100.885L225.594 100.454L236.442 78.7755L285.758 54.113L286.189 54.9759L237.152 79.4946L226.456 100.885Z" fill="#4D61F4" fill-opacity="0.4"/>
<path d="M121.91 222.526L121.057 222.095L148.982 166.227L207.285 137.079L213.289 125.081L214.143 125.512L208.004 137.798L149.701 166.946L121.91 222.526Z" fill="#4D61F4" fill-opacity="0.4"/>
<path d="M223.203 97.0837L222.34 96.6522L232.999 75.3422L289.002 47.3362L289.425 48.1991L233.718 76.0522L223.203 97.0837Z" fill="#4D61F4" fill-opacity="0.4"/>
<path d="M120.257 215.516L119.394 215.093L145.548 162.793L203.852 133.637L208.49 124.371L209.344 124.793L204.562 134.356L146.258 163.512L120.257 215.516Z" fill="#4D61F4" fill-opacity="0.4"/>
<path d="M221.486 90.199L220.623 89.7766L229.566 71.8998L287.888 42.7165L287.906 42.7255L288.014 42.6805L288.086 42.8243L288.742 43.1479L288.58 43.4625L288.436 43.5344L230.276 72.6189L221.486 90.199Z" fill="#4D61F4" fill-opacity="0.4"/>
<path d="M117.003 211.714L116.149 211.282L142.106 159.36L200.41 130.204L206.773 117.477L207.636 117.908L201.129 130.923L142.825 160.07L117.003 211.714Z" fill="#4D61F4" fill-opacity="0.4"/>
<path d="M298.089 14.1443L297.226 13.7129L301.9 4.38354L302.754 4.81496L298.089 14.1443Z" fill="#4D61F4" fill-opacity="0.4"/>
<path d="M221.315 80.2316L220.453 79.8091L226.124 68.4665L284.428 39.3102L289.515 29.136L290.378 29.5674L285.147 40.0292L226.843 69.1766L221.315 80.2316Z" fill="#4D61F4" fill-opacity="0.4"/>
<path d="M113.749 207.903L112.896 207.481L138.673 155.918L196.976 126.77L203.52 113.675L204.382 114.107L197.695 127.48L139.392 156.637L113.749 207.903Z" fill="#4D61F4" fill-opacity="0.4"/>
<path d="M219.608 73.3379L218.745 72.9155L222.69 65.0242L280.994 35.8768L295.536 6.7923L296.39 7.22371L281.713 36.5868L223.409 65.7432L219.608 73.3379Z" fill="#4D61F4" fill-opacity="0.4"/>
<path d="M107.018 211.058L106.164 210.626L135.239 152.484L193.543 123.328L200.266 109.873L201.129 110.305L194.253 124.047L135.949 153.194L107.018 211.058Z" fill="#4D61F4" fill-opacity="0.4"/>
<path d="M217.918 66.4083L217.064 65.9769L219.257 61.5908L277.561 32.4345L290.746 6.0553L291.609 6.47772L278.271 33.1535L219.967 62.3099L217.918 66.4083Z" fill="#4D61F4" fill-opacity="0.4"/>
<path d="M205.569 91.1068L204.706 90.6754L206.243 87.6015L207.106 88.0329L205.569 91.1068Z" fill="#4D61F4" fill-opacity="0.4"/>
<path d="M199.412 103.42L198.549 102.989L200.095 99.9148L200.949 100.337L199.412 103.42Z" fill="#4D61F4" fill-opacity="0.4"/>
<path d="M170.876 130.581L170.453 129.718L190.101 119.895L193.921 112.255L194.783 112.677L190.82 120.605L170.876 130.581Z" fill="#4D61F4" fill-opacity="0.4"/>
<path d="M105.678 203.418L104.825 202.996L131.797 149.042L167.371 131.255L167.802 132.118L132.516 149.761L105.678 203.418Z" fill="#4D61F4" fill-opacity="0.4"/>
<path d="M218.232 58.0137L217.81 57.1599L274.119 29.0011L284.401 8.43707L285.263 8.8595L274.838 29.7202L218.232 58.0137Z" fill="#4D61F4" fill-opacity="0.4"/>
<path d="M193.076 105.784L192.222 105.352L204.526 80.7259L205.389 81.1483L193.076 105.784Z" fill="#4D61F4" fill-opacity="0.4"/>
<path d="M173.968 123.876L173.536 123.022L186.667 116.452L190.667 108.444L191.53 108.876L187.377 117.171L173.968 123.876Z" fill="#4D61F4" fill-opacity="0.4"/>
<path d="M100.771 202.942L99.9083 202.51L128.364 145.609L167.38 126.096L167.811 126.959L129.074 146.328L100.771 202.942Z" fill="#4D61F4" fill-opacity="0.4"/>
<path d="M215.222 54.3647L214.799 53.5108L270.685 25.5588L282.774 1.39062L283.628 1.81305L271.395 26.2778L215.222 54.3647Z" fill="#4D61F4" fill-opacity="0.4"/>
<path d="M189.822 101.982L188.959 101.551L199.736 79.9979L200.598 80.4293L189.822 101.982Z" fill="#4D61F4" fill-opacity="0.4"/>
<path d="M173.986 118.717L173.554 117.854L183.225 113.019L187.413 104.642L188.276 105.074L183.944 113.738L173.986 118.717Z" fill="#4D61F4" fill-opacity="0.4"/>
<path d="M99.1803 195.797L98.3264 195.374L124.921 142.175L161.232 124.02L161.654 124.874L125.64 142.885L99.1803 195.797Z" fill="#4D61F4" fill-opacity="0.4"/>
<path d="M215.374 49.1338L214.952 48.28L267.243 22.1255L277.714 1.19293L278.577 1.61536L267.962 22.8445L215.374 49.1338Z" fill="#4D61F4" fill-opacity="0.4"/>
<path d="M186.569 98.1712L185.706 97.7487L194.945 79.2788L195.808 79.7013L186.569 98.1712Z" fill="#4D61F4" fill-opacity="0.4"/>
<path d="M174.013 113.54L173.581 112.686L179.792 109.586L184.16 100.841L185.023 101.263L180.511 110.296L174.013 113.54Z" fill="#4D61F4" fill-opacity="0.4"/>
<path d="M95.9267 191.995L95.0728 191.563L121.488 138.733L155.075 121.935L155.507 122.798L122.207 139.452L95.9267 191.995Z" fill="#4D61F4" fill-opacity="0.4"/>
<path d="M212.31 45.5117L211.878 44.6579L263.81 18.6921L272.779 0.74353L273.642 1.17494L264.529 19.4022L212.31 45.5117Z" fill="#4D61F4" fill-opacity="0.4"/>
<path d="M181.769 97.4612L180.906 97.0298L193.229 72.3942L194.091 72.8256L181.769 97.4612Z" fill="#4D61F4" fill-opacity="0.4"/>
<path d="M174.129 108.336L173.698 107.473L176.349 106.143L177.769 103.303L178.632 103.735L177.068 106.862L174.129 108.336Z" fill="#4D61F4" fill-opacity="0.4"/>
<path d="M92.6821 188.184L91.8193 187.761L118.046 135.3L148.928 119.859L149.359 120.713L118.765 136.01L92.6821 188.184Z" fill="#4D61F4" fill-opacity="0.4"/>
<path d="M204.544 44.2354L204.113 43.3816L260.376 15.2498L267.62 0.74353L268.483 1.17494L261.086 15.9688L204.544 44.2354Z" fill="#4D61F4" fill-opacity="0.4"/>
<path d="M183.971 82.7481L183.108 82.3167L190.802 66.9296L191.665 67.361L183.971 82.7481Z" fill="#4D61F4" fill-opacity="0.4"/>
<path d="M176.251 98.1981L175.388 97.7667L178.488 91.5561L179.351 91.9875L176.251 98.1981Z" fill="#4D61F4" fill-opacity="0.4"/>
<path d="M169.591 105.451L169.159 104.588L172.916 102.71L173.752 101.047L174.606 101.479L173.635 103.42L169.591 105.451Z" fill="#4D61F4" fill-opacity="0.4"/>
<path d="M88.7094 185.82L87.8466 185.389L114.612 131.857L144.443 116.947L144.874 117.8L115.331 132.576L88.7094 185.82Z" fill="#4D61F4" fill-opacity="0.4"/>
<path d="M199.205 41.7548L198.99 41.3324L198.531 41.1796L198.594 40.9819L256.934 11.8165L262.47 0.74353L263.333 1.17494L257.653 12.5355L199.205 41.7548Z" fill="#4D61F4" fill-opacity="0.4"/>
<path d="M177.823 84.7344L176.961 84.312L186.191 65.8421L187.054 66.2735L177.823 84.7344Z" fill="#4D61F4" fill-opacity="0.4"/>
<path d="M160.648 104.759L160.216 103.905L169.618 99.2047L170.04 100.068L160.648 104.759Z" fill="#4D61F4" fill-opacity="0.4"/>
<path d="M85.6447 181.632L84.7819 181.209L111.179 128.424L141.737 113.145L142.16 113.999L111.889 129.143L85.6447 181.632Z" fill="#4D61F4" fill-opacity="0.4"/>
<path d="M193.237 43.5793L192.384 43.1569L195.197 37.5305L253.501 8.37416L257.311 0.74353L258.174 1.17494L254.211 9.09319L195.907 38.2496L193.237 43.5793Z" fill="#4D61F4" fill-opacity="0.4"/>
<path d="M177.823 74.4164L176.97 73.985L183.126 61.6717L183.98 62.1031L177.823 74.4164Z" fill="#4D61F4" fill-opacity="0.4"/>
<path d="M157.942 100.957L157.511 100.104L166.184 95.7625L166.382 96.1579L166.849 96.3646L166.777 96.5084L166.616 96.6163L157.942 100.957Z" fill="#4D61F4" fill-opacity="0.4"/>
<path d="M84.1257 174.361L83.2719 173.929L107.737 124.991L142.106 107.806L142.537 108.66L108.456 125.701L84.1257 174.361Z" fill="#4D61F4" fill-opacity="0.4"/>
<path d="M190.173 39.4L189.319 38.9686L191.754 34.0972L250.058 4.94083L252.161 0.74353L253.015 1.17494L250.777 5.65985L192.473 34.8073L190.173 39.4Z" fill="#4D61F4" fill-opacity="0.4"/>
<path d="M173.213 73.3199L172.359 72.8975L178.515 60.5842L179.369 61.0156L173.213 73.3199Z" fill="#4D61F4" fill-opacity="0.4"/>
<path d="M84.1437 164.016L83.2809 163.593L104.303 121.548L162.607 92.401L166.184 85.2377L167.047 85.6602L163.317 93.111L105.013 122.267L84.1437 164.016Z" fill="#4D61F4" fill-opacity="0.4"/>
<path d="M185.544 38.3485L184.69 37.917L188.321 30.6549L246.769 1.43561L246.877 1.65131L247.479 1.94791L247.344 2.21754L247.2 2.28945L189.031 31.3739L185.544 38.3485Z" fill="#4D61F4" fill-opacity="0.4"/>
<path d="M84.1436 153.698L83.2898 153.266L100.861 118.115L159.165 88.9587L175.442 56.4139L176.295 56.8453L159.884 89.6777L101.58 118.825L84.1436 153.698Z" fill="#4D61F4" fill-opacity="0.4"/>
<path d="M197.399 22.0356L196.976 21.1728L227.778 5.77667L228.2 6.63051L197.399 22.0356Z" fill="#4D61F4" fill-opacity="0.4"/>
<path d="M182.479 34.1781L181.616 33.7467L183.198 30.583L184.061 31.0144L182.479 34.1781Z" fill="#4D61F4" fill-opacity="0.4"/>
<path d="M82.6158 146.454L81.7529 146.022L97.4276 114.673L155.731 85.5253L170.831 55.3354L171.685 55.7578L156.441 86.2354L98.1467 115.392L82.6158 146.454Z" fill="#4D61F4" fill-opacity="0.4"/>
<path d="M197.785 16.6879L197.354 15.8251L206.593 11.2143L207.025 12.0682L197.785 16.6879Z" fill="#4D61F4" fill-opacity="0.4"/>
<path d="M177.859 33.1086L176.997 32.6771L181.445 23.7792L188.078 20.4627L188.51 21.3256L182.164 24.4983L177.859 33.1086Z" fill="#4D61F4" fill-opacity="0.4"/>
<path d="M168.611 51.5875L167.757 51.165L173.914 38.8518L174.768 39.2832L168.611 51.5875Z" fill="#4D61F4" fill-opacity="0.4"/>
<path d="M156.289 76.25L155.426 75.8275L164.683 57.3127L165.537 57.7441L156.289 76.25Z" fill="#4D61F4" fill-opacity="0.4"/>
<path d="M77.996 145.366L77.1422 144.935L93.9943 111.239L152.298 82.083L153.844 78.9822L154.707 79.4136L153.008 82.802L94.7044 111.958L77.996 145.366Z" fill="#4D61F4" fill-opacity="0.4"/>
<path d="M162.463 53.5828L161.609 53.1514L178.012 20.3459L206.989 5.8576L207.411 6.72043L178.722 21.0649L162.463 53.5828Z" fill="#4D61F4" fill-opacity="0.4"/>
<path d="M153.215 72.0796L152.361 71.6482L160.064 56.2251L160.926 56.6565L153.215 72.0796Z" fill="#4D61F4" fill-opacity="0.4"/>
<path d="M76.4681 138.122L75.6053 137.69L90.552 107.797L148.856 78.6497L148.91 78.5598L148.973 78.5868L149 78.5778L149.018 78.6137L149.764 78.9822L149.575 79.3597L91.271 108.516L76.4681 138.122Z" fill="#4D61F4" fill-opacity="0.4"/>
<path d="M162.472 43.2648L161.609 42.8334L174.57 16.9126L198.127 5.12958L198.558 5.99241L175.289 17.6226L162.472 43.2648Z" fill="#4D61F4" fill-opacity="0.4"/>
<path d="M156.316 55.578L155.453 55.1466L160.073 45.9162L160.926 46.3386L156.316 55.578Z" fill="#4D61F4" fill-opacity="0.4"/>
<path d="M150.141 67.9093L149.287 67.4869L153.916 58.2294L154.77 58.6519L150.141 67.9093Z" fill="#4D61F4" fill-opacity="0.4"/>
<path d="M132.444 82.7751L132.013 81.9122L145.422 75.2163L146.043 73.976L146.896 74.4074L146.132 75.9264L132.444 82.7751Z" fill="#4D61F4" fill-opacity="0.4"/>
<path d="M71.8573 137.034L70.9945 136.612L87.1186 104.364L125.856 84.9951L126.278 85.8579L87.8286 105.083L71.8573 137.034Z" fill="#4D61F4" fill-opacity="0.4"/>
<path d="M156.136 45.6196L155.273 45.1882L171.137 13.4703L185.814 6.13623L186.245 6.99007L171.856 14.1893L156.136 45.6196Z" fill="#4D61F4" fill-opacity="0.4"/>
<path d="M151.516 54.85L150.662 54.4186L153.736 48.271L154.599 48.6934L151.516 54.85Z" fill="#4D61F4" fill-opacity="0.4"/>
<path d="M146.887 64.1074L146.034 63.676L147.579 60.5842L148.433 61.0156L146.887 64.1074Z" fill="#4D61F4" fill-opacity="0.4"/>
<path d="M138.691 74.4883L138.268 73.6345L141.98 71.774L144.479 66.7948L145.333 67.2262L142.699 72.4931L138.691 74.4883Z" fill="#4D61F4" fill-opacity="0.4"/>
<path d="M67.0579 136.315L66.204 135.884L83.6853 100.93L128.939 78.2991L129.37 79.153L84.3953 101.64L67.0579 136.315Z" fill="#4D61F4" fill-opacity="0.4"/>
<path d="M154.419 38.7439L153.556 38.3125L167.703 10.037L176.574 5.59698L177.005 6.45981L168.413 10.747L154.419 38.7439Z" fill="#4D61F4" fill-opacity="0.4"/>
<path d="M146.726 54.131L145.863 53.6996L152.019 41.3864L152.882 41.8178L146.726 54.131Z" fill="#4D61F4" fill-opacity="0.4"/>
<path d="M139.113 69.1226L138.852 68.6732L138.475 68.4845L144.326 56.7824L145.18 57.2138L139.257 69.0507L139.113 69.1226Z" fill="#4D61F4" fill-opacity="0.4"/>
<path d="M110.9 83.2335L110.478 82.3706L125.865 74.6771L126.296 75.5399L110.9 83.2335Z" fill="#4D61F4" fill-opacity="0.4"/>
<path d="M65.3412 129.431L64.4874 129.008L80.243 97.4881L104.321 85.4534L104.753 86.3073L80.962 98.2071L65.3412 129.431Z" fill="#4D61F4" fill-opacity="0.4"/>
<path d="M151.166 34.9421L150.303 34.5107L164.261 6.59458L164.521 6.46875L164.809 7.05296L165.052 7.1698L151.166 34.9421Z" fill="#4D61F4" fill-opacity="0.4"/>
<path d="M145.009 47.2463L144.155 46.8239L148.766 37.5845L149.629 38.0159L145.009 47.2463Z" fill="#4D61F4" fill-opacity="0.4"/>
<path d="M141.926 53.412L141.072 52.9806L142.609 49.8978L143.472 50.3292L141.926 53.412Z" fill="#4D61F4" fill-opacity="0.4"/>
<path d="M138.834 59.6046L137.972 59.1821L139.526 56.0724L140.38 56.4948L138.834 59.6046Z" fill="#4D61F4" fill-opacity="0.4"/>
<path d="M129.415 68.817L128.993 67.9632L135.113 64.8984L136.381 62.3638L137.235 62.7952L135.824 65.6174L129.415 68.817Z" fill="#4D61F4" fill-opacity="0.4"/>
<path d="M62.0877 125.629L61.2338 125.206L76.8097 94.0547L122.8 71.055L123.223 71.9178L77.5197 94.7648L62.0877 125.629Z" fill="#4D61F4" fill-opacity="0.4"/>
<path d="M146.375 34.2141L145.512 33.7827L156.298 12.2209L157.152 12.6524L146.375 34.2141Z" fill="#4D61F4" fill-opacity="0.4"/>
<path d="M143.292 40.3707L142.438 39.9393L143.975 36.8654L144.829 37.2879L143.292 40.3707Z" fill="#4D61F4" fill-opacity="0.4"/>
<path d="M140.218 46.5273L139.356 46.0959L140.893 43.0131L141.755 43.4445L140.218 46.5273Z" fill="#4D61F4" fill-opacity="0.4"/>
<path d="M137.127 52.693L136.273 52.2705L137.819 49.1787L138.673 49.6102L137.127 52.693Z" fill="#4D61F4" fill-opacity="0.4"/>
<path d="M126.35 65.195L125.919 64.3411L131.671 61.465L133.136 58.535L133.999 58.9664L132.39 62.1751L126.35 65.195Z" fill="#4D61F4" fill-opacity="0.4"/>
<path d="M58.8341 121.836L57.9802 121.405L73.3673 90.6124L122.818 65.896L123.241 66.7498L74.0863 91.3314L58.8341 121.836Z" fill="#4D61F4" fill-opacity="0.4"/>
<path d="M144.658 27.3294L143.796 26.907L151.498 11.5019L152.352 11.9333L144.658 27.3294Z" fill="#4D61F4" fill-opacity="0.4"/>
<path d="M138.502 39.6427L137.639 39.2203L140.722 33.0636L141.576 33.4861L138.502 39.6427Z" fill="#4D61F4" fill-opacity="0.4"/>
<path d="M130.745 55.1466L129.892 54.7152L134.565 45.3769L135.419 45.8083L130.745 55.1466Z" fill="#4D61F4" fill-opacity="0.4"/>
<path d="M126.503 59.9641L126.072 59.1102L128.382 57.9598L128.57 58.3373L129.056 58.544L128.975 58.6878L128.804 58.8136L126.503 59.9641Z" fill="#4D61F4" fill-opacity="0.4"/>
<path d="M95.5312 75.45L95.0998 74.5962L122.854 60.719L123.285 61.5729L95.5312 75.45Z" fill="#4D61F4" fill-opacity="0.4"/>
<path d="M54.0436 121.108L53.1807 120.677L69.934 87.1791L85.8693 79.2069L86.3007 80.0697L70.644 87.8981L54.0436 121.108Z" fill="#4D61F4" fill-opacity="0.4"/>
<path d="M138.322 29.6842L137.468 29.2618L143.625 16.9395L144.479 17.371L138.322 29.6842Z" fill="#4D61F4" fill-opacity="0.4"/>
<path d="M135.248 35.8409L134.385 35.4095L135.931 32.3356L136.785 32.767L135.248 35.8409Z" fill="#4D61F4" fill-opacity="0.4"/>
<path d="M127.501 51.3268L126.647 50.8954L129.766 44.6578L130.62 45.0893L127.501 51.3268Z" fill="#4D61F4" fill-opacity="0.4"/>
<path d="M95.5402 70.291L95.1088 69.4372L104.339 64.8174L104.771 65.6803L95.5402 70.291Z" fill="#4D61F4" fill-opacity="0.4"/>
<path d="M86.3097 74.9108L85.8783 74.048L92.0349 70.9741L92.4574 71.8369L86.3097 74.9108Z" fill="#4D61F4" fill-opacity="0.4"/>
<path d="M50.79 117.306L49.9271 116.875L66.4916 83.7457L79.7127 77.1307L80.1441 77.9936L67.2106 84.4558L50.79 117.306Z" fill="#4D61F4" fill-opacity="0.4"/>
<path d="M133.532 28.9562L132.669 28.5338L134.215 25.451L135.068 25.8824L133.532 28.9562Z" fill="#4D61F4" fill-opacity="0.4"/>
<path d="M128.912 38.1957L128.049 37.7733L131.132 31.6076L131.995 32.0391L128.912 38.1957Z" fill="#4D61F4" fill-opacity="0.4"/>
<path d="M117.156 54.3287L116.724 53.4749L121.362 51.1561L124.966 43.9478L125.82 44.3793L122.072 51.8661L117.156 54.3287Z" fill="#4D61F4" fill-opacity="0.4"/>
<path d="M80.1531 72.8346L79.7217 71.9718L101.265 61.2044L101.697 62.0582L80.1531 72.8346Z" fill="#4D61F4" fill-opacity="0.4"/>
<path d="M45.9905 116.578L45.1367 116.156L62.2224 81.9752L63.0853 82.4066L45.9905 116.578Z" fill="#4D61F4" fill-opacity="0.4"/>
<path d="M128.741 28.2372L127.878 27.8058L130.961 21.6491L131.815 22.0716L128.741 28.2372Z" fill="#4D61F4" fill-opacity="0.4"/>
<path d="M124.112 37.4766L123.259 37.0542L126.341 30.8885L127.195 31.311L124.112 37.4766Z" fill="#4D61F4" fill-opacity="0.4"/>
<path d="M121.012 43.6962L120.149 43.2648L121.713 40.146L122.566 40.5685L121.012 43.6962Z" fill="#4D61F4" fill-opacity="0.4"/>
<path d="M101.706 56.8992L101.274 56.0454L117.929 47.7137L118.414 46.743L119.268 47.1745L118.639 48.4328L101.706 56.8992Z" fill="#4D61F4" fill-opacity="0.4"/>
<path d="M80.1621 67.6756L79.7307 66.8128L95.1177 59.1192L95.5492 59.9821L80.1621 67.6756Z" fill="#4D61F4" fill-opacity="0.4"/>
<path d="M41.2 115.859L40.3372 115.428L55.7423 84.6266L56.6051 85.049L41.2 115.859Z" fill="#4D61F4" fill-opacity="0.4"/>
<path d="M120.859 33.6748L120.005 33.2434L121.551 30.1606L122.405 30.592L120.859 33.6748Z" fill="#4D61F4" fill-opacity="0.4"/>
<path d="M111.035 47.0846L110.604 46.2217L114.486 44.2804L115.241 42.7614L116.104 43.1929L115.206 44.9904L111.035 47.0846Z" fill="#4D61F4" fill-opacity="0.4"/>
<path d="M95.5492 54.823L95.1268 53.9602L107.467 47.7946L107.898 48.6484L95.5492 54.823Z" fill="#4D61F4" fill-opacity="0.4"/>
<path d="M83.2449 60.9797L82.8135 60.1169L88.9701 57.0341L89.4015 57.8969L83.2449 60.9797Z" fill="#4D61F4" fill-opacity="0.4"/>
<path d="M34.8636 118.214L34.0098 117.782L50.9428 83.9165L51.7966 84.3479L34.8636 118.214Z" fill="#4D61F4" fill-opacity="0.4"/>
<path d="M89.4016 52.7379L88.9791 51.884L111.053 40.838L115.205 32.5333L116.059 32.9647L111.763 41.5571L89.4016 52.7379Z" fill="#4D61F4" fill-opacity="0.4"/>
<path d="M25.3366 126.968L24.4738 126.537L46.1433 83.1975L47.0061 83.6289L25.3366 126.968Z" fill="#4D61F4" fill-opacity="0.4"/>
<path d="M101.76 41.4042L101.328 40.5504L107.611 37.4047L108.797 35.0409L109.66 35.4633L108.33 38.1237L101.76 41.4042Z" fill="#4D61F4" fill-opacity="0.4"/>
<path d="M86.3277 49.1248L85.9053 48.262L98.2275 42.0963L98.6589 42.9592L86.3277 49.1248Z" fill="#4D61F4" fill-opacity="0.4"/>
<path d="M4.76354 133.628L4.33212 132.774L20.1596 124.865L41.3528 82.4785L42.2067 82.9099L20.8786 125.575L4.76354 133.628Z" fill="#4D61F4" fill-opacity="0.4"/>
<path d="M14.2097 123.75L13.7783 122.897L16.7173 121.423L36.5533 81.7595L37.4161 82.1819L17.4363 122.142L14.2097 123.75Z" fill="#4D61F4" fill-opacity="0.4"/>
<path d="M7.94518 121.728L7.51376 120.874L13.2839 117.989L31.7628 81.0315L32.6167 81.4629L14.0029 118.699L7.94518 121.728Z" fill="#4D61F4" fill-opacity="0.4"/>
<path d="M1.13246 119.985L0.70105 119.122L9.85062 114.547L26.9634 80.3124L27.8262 80.7348L10.5607 115.266L1.13246 119.985Z" fill="#4D61F4" fill-opacity="0.4"/>
<path d="M10.7045 104.669L9.85062 104.238L23.7098 76.5106L24.5726 76.933L10.7045 104.669Z" fill="#4D61F4" fill-opacity="0.4"/>
<path d="M5.02416 112.884L4.59274 112.021L6.40828 111.114L8.27774 107.375L9.14056 107.806L7.1273 111.833L5.02416 112.884Z" fill="#4D61F4" fill-opacity="0.4"/>
<path d="M3.75692 108.246L2.90308 107.824L17.3824 78.8564L18.2452 79.2878L3.75692 108.246Z" fill="#4D61F4" fill-opacity="0.4"/>
<path d="M5.8151 93.8301L4.95227 93.4076L9.57199 84.1592L10.4348 84.5906L5.8151 93.8301Z" fill="#4D61F4" fill-opacity="0.4"/>
<path d="M0.862828 103.744L0 103.312L1.8425 99.6272L2.70532 100.05L0.862828 103.744Z" fill="#4D61F4" fill-opacity="0.4"/>
</g>
</svg>
