<svg width="32" height="32" viewBox="0 0 32 32" fill="none" xmlns="http://www.w3.org/2000/svg">
<g clip-path="url(#clip0_179_170)">
<path d="M14.6314 18.6813C14.3699 19.3198 14.6758 20.0503 15.3143 20.3118C15.9528 20.5734 16.6833 20.2675 16.9448 19.629C17.2064 18.9905 16.9005 18.26 16.262 17.9984C15.6235 17.7369 14.893 18.0428 14.6314 18.6813ZM16.9059 13.1291C16.6443 13.7676 16.9502 14.4981 17.5887 14.7596C18.2272 15.0212 18.9577 14.7153 19.2193 14.0768C19.4809 13.4383 19.1749 12.7078 18.5364 12.4462C17.8979 12.1847 17.1674 12.4906 16.9059 13.1291ZM6.74634 12.2092C4.65383 17.3172 7.1012 23.1611 12.2092 25.2536C17.3172 27.3461 23.1611 24.8987 25.2536 19.7907C27.3461 14.6827 24.8988 8.83882 19.7908 6.74631C14.6828 4.6538 8.83885 7.10117 6.74634 12.2092ZM23.4029 19.0326C21.7312 23.1134 17.0482 25.0746 12.9674 23.4029C12.699 23.2929 12.4382 23.1645 12.1905 23.0306C12.1135 20.4487 11.0364 17.9867 9.1963 16.1738C12.2514 15.4693 14.9264 13.3448 16.2039 10.2263C16.4995 9.50454 16.7006 8.7764 16.8162 8.04569C17.5528 8.12051 18.3016 8.29757 19.0326 8.59704C23.1135 10.2688 25.0746 14.9517 23.4029 19.0326Z" fill="#6405AB"/>
</g>
<defs>
<clipPath id="clip0_179_170">
<rect width="24" height="24" fill="white" transform="translate(0.34668 22.5554) rotate(-67.7234)"/>
</clipPath>
</defs>
</svg>
